# Made in Blockbench 5.1.4
mtllib base_pipe.mtl

o nearZ
v 0.49999999999999994 0.4999999999999999 0
v 0.6877273342010344 0.49999984781479057 0.5
v 0.6877273342010343 0.49999984781479045 0
v 0.6327431634164311 0.6327433786388181 0.49999999999999994
v 0.6327431634164311 0.6327433786388181 0
v 0.5000001521852094 0.6877273342010344 0.49999999999999994
v 0.5000001521852093 0.6877273342010342 0
v 0.36725662136118176 0.6327431634164311 0.5
v 0.3672566213611817 0.632743163416431 0
v 0.3122726657989657 0.5000001521852094 0.5
v 0.3122726657989656 0.5000001521852093 0
v 0.3672568365835689 0.3672566213611818 0.5
v 0.36725683658356884 0.3672566213611817 5.551115123125783e-17
v 0.49999984781479057 0.3122726657989657 0.5
v 0.4999998478147905 0.31227266579896557 5.551115123125783e-17
v 0.6327433786388182 0.3672568365835689 0.5
v 0.6327433786388181 0.3672568365835688 0
vt 0.37407500000000077 1
vt 0.37407500000000077 0.375
vt 0.1875927746128546 0.375
vt 0.1875927746128546 1
vt 0.05271335420808304 0.30723544536884184
vt 0 0.1799741507215108
vt 0.17997429662155312 0.17997429662155318
vt 0.1864822253871464 1
vt 0.1864822253871464 0.375
vt 0 0.375
vt 0 1
vt 0.1799741507215108 0.35994859324310635
vt 0.05271335420808304 0.30723544536884184
vt 0.17997429662155312 0.17997429662155318
vt 0.3740750000000009 1
vt 0.3740750000000009 0.375
vt 0.18759277461285473 0.375
vt 0.18759277461285473 1
vt 0.30723544536884173 0.30723523903502326
vt 0.1799741507215108 0.35994859324310635
vt 0.17997429662155312 0.17997429662155318
vt 0.1864822253871464 1
vt 0.1864822253871464 0.375
vt 0 0.375
vt 0 1
vt 0.35994859324310646 0.17997444252159545
vt 0.30723544536884173 0.30723523903502326
vt 0.17997429662155312 0.17997429662155318
vt 0.37407500000000077 1
vt 0.37407500000000077 0.375
vt 0.1875927746128546 0.375
vt 0.1875927746128546 1
vt 0.3072352390350235 0.05271314787426418
vt 0.35994859324310646 0.17997444252159545
vt 0.17997429662155312 0.17997429662155318
vt 0.1864822253871464 1
vt 0.1864822253871464 0.375
vt 0 0.375
vt 0 1
vt 0.17997444252159545 0
vt 0.3072352390350235 0.05271314787426418
vt 0.17997429662155312 0.17997429662155318
vt 0.37407500000000077 1
vt 0.37407500000000077 0.375
vt 0.1875927746128546 0.375
vt 0.1875927746128546 1
vt 0.0527131478742644 0.052713354208083096
vt 0.17997444252159545 0
vt 0.17997429662155312 0.17997429662155318
vt 0.1864822253871464 1
vt 0.1864822253871464 0.375
vt 0 0.375
vt 0 1
vt 0 0.1799741507215108
vt 0.0527131478742644 0.052713354208083096
vt 0.17997429662155312 0.17997429662155318
vn 0.9238795325112868 0.38268343236508967 -1.8754402444825695e-16
vn -1.0621598943857668e-16 -2.5642808224348916e-16 -1
vn 0.3826834323650899 0.9238795325112867 -2.4762886157022196e-16
vn -1.0621598943857668e-16 -2.5642808224348916e-16 -1
vn -0.3826834323650896 0.9238795325112867 -1.626560700193607e-16
vn -1.0621598943857668e-16 -2.5642808224348916e-16 -1
vn -0.9238795325112866 0.38268343236508984 1.7598441346534316e-17
vn -1.0621598943857668e-16 -2.5642808224348916e-16 -1
vn -0.9238795325112868 -0.38268343236508967 1.8754402444825695e-16
vn -1.0621598943857668e-16 -2.5642808224348916e-16 -1
vn -0.3826834323650899 -0.9238795325112867 2.4762886157022196e-16
vn -1.0621598943857668e-16 -2.5642808224348916e-16 -1
vn 0.3826834323650896 -0.9238795325112867 1.626560700193607e-16
vn -1.0621598943857668e-16 -2.5642808224348916e-16 -1
vn 0.9238795325112866 -0.38268343236508984 -1.7598441346534316e-17
vn -1.0621598943857668e-16 -2.5642808224348916e-16 -1
usemtl m_0
f 5/1/1 4/2/1 2/3/1 3/4/1
f 5/5/2 3/6/2 1/7/2
f 7/8/3 6/9/3 4/10/3 5/11/3
f 7/12/4 5/13/4 1/14/4
f 9/15/5 8/16/5 6/17/5 7/18/5
f 9/19/6 7/20/6 1/21/6
f 11/22/7 10/23/7 8/24/7 9/25/7
f 11/26/8 9/27/8 1/28/8
f 13/29/9 12/30/9 10/31/9 11/32/9
f 13/33/10 11/34/10 1/35/10
f 15/36/11 14/37/11 12/38/11 13/39/11
f 15/40/12 13/41/12 1/42/12
f 17/43/13 16/44/13 14/45/13 15/46/13
f 17/47/14 15/48/14 1/49/14
f 3/50/15 2/51/15 16/52/15 17/53/15
f 3/54/16 17/55/16 1/56/16