# Made in Blockbench 5.1.4
mtllib connecting_rod.mtl

o Куб
v -0.07996625 1.22516125 0.036611875
v -0.0581725 0.573293125 -0.03543375
v -0.0581725 0.573293125 0.033898125
v 0.079966875 1.22516125 -0.03814875
v 0.058171875 0.573293125 -0.03543375
v 0.058171875 0.573293125 0.033898125
v -0.07996625 1.22516125 -0.03814875
v 0.079966875 1.22516125 0.036611875
v 0.0535275 1.19959125 0.03650625
v 0.0334425 0.598861875 0.03400375
v -0.0535275 1.19959125 0.03650625
v -0.033443125 0.598861875 0.03400375
v 0.03367375 0.547723125 0.033898125
v 0.0535275 1.19966375 0.01902875
v -0.033443125 0.598935 0.016528125
v 0.0334425 0.598935 0.016528125
v -0.0535275 1.19966375 0.01902875
v 0.03367375 0.547723125 0.01642125
v -0.059409375 -0.05300625 0.01642125
v 0.05941 -0.05300625 0.01642125
v 0.05941 -0.05300625 0.033898125
v -0.033674375 0.547723125 0.01642125
v -0.033674375 0.547723125 0.033898125
v -0.059409375 -0.05300625 0.033898125
v -0.08434625 -0.03768125 0.033898125
v -0.04516625 -0.07857625 0.033898125
v -0.059413125 -0.05300875 0.033898125
v 0.045166875 -0.07857625 0.033898125
v 0.084346875 -0.03768125 0.033898125
v 0.0594125 -0.05300875 0.033898125
v -0.08434625 -0.03768125 -0.03543375
v -0.04516625 -0.07857625 -0.03543375
v 0.045166875 -0.07857625 -0.03543375
v 0.084346875 -0.03768125 -0.03543375
vt 0.3993190625 0.98002890625
vt 0.3311621875 0.3630059375
vt 0.39675109375 0.3630059375
vt 0.2990740625 0.36808406250000003
vt 0.1683940625 0.98476796875
vt 0.1890109375 0.36808406250000003
vt 0.3993190625 0.98002890625
vt 0.3311621875 0.3630059375
vt 0.39675109375 0.3630059375
vt 0.92368703125 0.9829140625
vt 0.8529609375 0.831615
vt 0.92368703125 0.831615
vt 0.4152121875 0.3629496875
vt 0.4394021875 0.9549667187499999
vt 0.4394021875 0.38634375
vt 0.90162203125 0.5407020312499999
vt 0.87743296875 0.6669890625
vt 0.87743296875 0.56571296875
vt 0.4152121875 0.3629496875
vt 0.4394021875 0.95496578125
vt 0.4152121875 0.9799778125
vt 0.91276703125 0.81237703125
vt 0.9369559375 0.72570796875
vt 0.9369559375 0.7889829687500001
vt 0.91276703125 0.81237703125
vt 0.9369559375 0.7254890625
vt 0.91276703125 0.7023140625
vt 0.8092240625 0.9849178125
vt 0.7269490625 0.41661375
vt 0.7902240625 0.41661375
vt 0.83973203125 0.9861159375
vt 0.8231990625 0.4174940625
vt 0.83973203125 0.4174940625
vt 0.85839703125 0.6522
vt 0.8749309375 0.5509240625
vt 0.8749309375 0.6522
vt 0.83973203125 0.4174940625
vt 0.8231990625 0.9861159375
vt 0.8231990625 0.4174940625
vt 0.9367990625 0.63270703125
vt 0.920265 0.69598203125
vt 0.920265 0.63270703125
vt 0.60011375 0.4212440625
vt 0.68817171875 0.9895440625
vt 0.57576671875 0.9895440625
vt 0.8231990625 0.986215
vt 0.83973203125 0.41739499999999996
vt 0.83973203125 0.9862159375
vt 0.920265 0.6962009375
vt 0.9367990625 0.63248796875
vt 0.9367990625 0.6962009375
vt 0.83973203125 0.41739499999999996
vt 0.8231990625 0.9862159375
vt 0.8231990625 0.41739499999999996
vt 0.89942296875 0.704545
vt 0.88289 0.8169500000000001
vt 0.88289 0.704545
vt 0.9301109375 0.6142090625000001
vt 0.9301109375 0.5606320312499999
vt 0.92311 0.5874209375
vt 0.9301109375 0.5606320312499999
vt 0.9301109375 0.6142090625000001
vt 0.92311 0.5874209375
vt 0.9873459375 0.9846709375
vt 0.9337690625 0.9190809375
vt 0.9873459375 0.9190809375
vt 0.9337690625 0.9190809375
vt 0.9873459375 0.9846709375
vt 0.9337690625 0.9846709375
vt 0.56651609375 0.982470625
vt 0.50092609375 0.40394968750000004
vt 0.56651609375 0.40394968750000004
vt 0.4824340625 0.40433796875000005
vt 0.458245 0.39086296875000004
vt 0.458245 0.95967703125
vt 0.8542059375 0.44114906249999997
vt 0.919795 0.5266059375000001
vt 0.8542059375 0.5266059375000001
vt 0.9771128125 0.7160878125
vt 0.952946875 0.815026875
vt 0.952926875 0.7026159375000001
vt 0.167695 0.40677093750000004
vt 0.03287 0.98476296875
vt 0.0451740625 0.36808406250000003
vt 0.56651609375 0.982470625
vt 0.50092609375 0.40394968750000004
vt 0.56651609375 0.40394968750000004
vt 0.4824340625 0.40433906249999996
vt 0.458245 0.9596790625
vt 0.458245 0.390865
vt 0.3993190625 0.98002890625
vt 0.3285940625 0.98002890625
vt 0.3311621875 0.3630059375
vt 0.2990740625 0.36808406250000003
vt 0.31969296875 0.98476796875
vt 0.1683940625 0.98476796875
vt 0.3993190625 0.98002890625
vt 0.3285940625 0.98002890625
vt 0.3311621875 0.3630059375
vt 0.92368703125 0.9829140625
vt 0.8529609375 0.9829140625
vt 0.8529609375 0.831615
vt 0.4152121875 0.3629496875
vt 0.4152121875 0.9799778125
vt 0.4394021875 0.9549667187499999
vt 0.90162203125 0.5407020312499999
vt 0.90162203125 0.6920009375
vt 0.87743296875 0.6669890625
vt 0.4152121875 0.3629496875
vt 0.4394021875 0.38634375
vt 0.4394021875 0.95496578125
vt 0.91276703125 0.81237703125
vt 0.91276703125 0.7023140625
vt 0.9369559375 0.72570796875
vt 0.91276703125 0.81237703125
vt 0.9369559375 0.78920203125
vt 0.9369559375 0.7254890625
vt 0.8092240625 0.9849178125
vt 0.7079490625 0.98491875
vt 0.7269490625 0.41661375
vt 0.83973203125 0.9861159375
vt 0.8231990625 0.9861159375
vt 0.8231990625 0.4174940625
vt 0.85839703125 0.6522
vt 0.85839703125 0.5509240625
vt 0.8749309375 0.5509240625
vt 0.83973203125 0.4174940625
vt 0.83973203125 0.9861159375
vt 0.8231990625 0.9861159375
vt 0.9367990625 0.63270703125
vt 0.9367990625 0.69598203125
vt 0.920265 0.69598203125
vt 0.60011375 0.4212440625
vt 0.66382578125 0.4212440625
vt 0.68817171875 0.9895440625
vt 0.8231990625 0.986215
vt 0.8231990625 0.41739499999999996
vt 0.83973203125 0.41739499999999996
vt 0.920265 0.6962009375
vt 0.920265 0.63248796875
vt 0.9367990625 0.63248796875
vt 0.83973203125 0.41739499999999996
vt 0.83973203125 0.9862159375
vt 0.8231990625 0.9862159375
vt 0.89942296875 0.704545
vt 0.89942296875 0.8169500000000001
vt 0.88289 0.8169500000000001
vt 0.9873459375 0.9846709375
vt 0.9337690625 0.9846709375
vt 0.9337690625 0.9190809375
vt 0.9337690625 0.9190809375
vt 0.9873459375 0.9190809375
vt 0.9873459375 0.9846709375
vt 0.56651609375 0.982470625
vt 0.50092609375 0.9824715625
vt 0.50092609375 0.40394968750000004
vt 0.458245 0.95967703125
vt 0.4824340625 0.9828529687500001
vt 0.4824340625 0.40433796875000005
vt 0.4824340625 0.40433796875000005
vt 0.458265 0.39084296875
vt 0.458245 0.39086296875000004
vt 0.8542059375 0.44114906249999997
vt 0.919795 0.44114906249999997
vt 0.919795 0.5266059375000001
vt 0.858005 0.7045690625000001
vt 0.85802 0.704545
vt 0.8821909375 0.7180409375
vt 0.9771128125 0.7160878125
vt 0.9771128125 0.8015328125
vt 0.952946875 0.815026875
vt 0.952946875 0.815026875
vt 0.952926875 0.8150059375
vt 0.952926875 0.7026159375000001
vt 0.0451740625 0.36808406250000003
vt 0.13063 0.36808406250000003
vt 0.167695 0.40677093750000004
vt 0.167695 0.40677093750000004
vt 0.1429340625 0.98476296875
vt 0.03287 0.98476296875
vt 0.03287 0.98476296875
vt 0.0081090625 0.40677093750000004
vt 0.0451740625 0.36808406250000003
vt 0.56651609375 0.982470625
vt 0.50092609375 0.9824715625
vt 0.50092609375 0.40394968750000004
vt 0.458245 0.390865
vt 0.45826 0.39084203125000005
vt 0.4824340625 0.40433906249999996
vt 0.4824340625 0.40433906249999996
vt 0.4824340625 0.9828540625
vt 0.458245 0.9596790625
vn -0.9994415933842784 -0.03341409004439144 0
vn 0 -0.004164916718364903 -0.9999913266967516
vn 0.9994415293802724 -0.03341600439942211 0
vn 0 1 0
vn -0.00003472865554701944 -0.004164572062245112 0.9999913275291236
vn 0 -0.004130782121134615 0.9999914682831388
vn -0.00003220016116797966 -0.004164075721885308 0.9999913296806788
vn 0 -0.004130984062548688 0.9999914674489354
vn 0 0 1
vn 0 -0.004162616380974652 0.9999913362749023
vn -0.9994415497550306 0.03341510246924847 0.00013982214473392713
vn 0 -0.9999913963686957 -0.004148154841175814
vn 0.9994415844808135 0.033414063827436 0.0001398177986413361
vn 0 0.99999124551454 0.004184363067315644
vn 0 0 1
vn -0.9990835569732291 -0.04280240864391268 0
vn 0 -1 0
vn 0.9990836458713307 -0.04280033355535293 0
vn 0 1 0
vn 0 0 1
vn 0 0 1
vn -0.7220855914460345 -0.6918037283984748 0
vn 0.7220855914460345 -0.6918037283984748 0
vn -0.9990836557723971 0.04280010243518442 0
vn 0 0 1
vn 0 -1 0
vn 0 0 1
vn 0 0 -1
vn 0.999083568365471 0.042802142728107395 0
vn 0 0 1
vn -0.9994415933842785 -0.03341409004439145 0
vn 0 -0.004164916718364903 -0.9999913266967516
vn 0.9994415293802725 -0.03341600439942212 0
vn 0 1 0
vn 0.00003219943626448304 -0.004164075759393768 0.999991329680546
vn 0 -0.004130782121134614 0.9999914682831388
vn 0.00003472869165692238 -0.0041645720971689865 0.9999913275289769
vn 0 -0.0041309840625486875 0.9999914674489354
vn 0 0 1
vn 0 -0.004162616380974654 0.9999913362749024
vn -0.9994415485795695 0.0334151426673718 0.0001386123783940368
vn 0 -0.9999913963686957 -0.004148154841175814
vn 0.9994415833054254 0.0334141040243123 0.00013860806990468848
vn 0 0.99999124551454 0.004184363067315644
vn 0 0 1
vn -0.9990835569732291 -0.04280240864391268 0
vn 0 -1 0
vn 0.9990836458713307 -0.04280033355535293 0
vn 0 1 0
vn -0.7220855914460345 -0.6918037283984748 0
vn 0.7220855914460345 -0.6918037283984748 0
vn -0.9990836557723971 0.04280010243518442 0
vn 0 0 1
vn 0 0 1
vn 0 -1 0
vn 0 0 1
vn 0 0 1
vn 0 0 1
vn 0 0 -1
vn 0 0 -1
vn 0 0 -1
vn 0.999083568365471 0.042802142728107395 0
vn 0 0 1
vn 0 0 1
usemtl m_b418d196-28f3-9c55-5db6-06fa62531982
f 1/1/1 2/2/1 3/3/1
f 2/4/2 4/5/2 5/6/2
f 4/7/3 6/8/3 5/9/3
f 7/10/4 8/11/4 4/12/4
f 6/13/5 9/14/5 10/15/5
f 8/16/6 11/17/6 9/18/6
f 3/19/7 11/20/7 1/21/7
f 3/22/8 10/23/8 12/24/8
f 3/25/9 13/26/9 6/27/9
f 14/28/10 15/29/10 16/30/10
f 9/31/11 16/32/11 10/33/11
f 17/34/12 9/35/12 11/36/12
f 15/37/13 11/38/13 12/39/13
f 16/40/14 12/41/14 10/42/14
f 18/43/15 19/44/15 20/45/15
f 18/46/16 21/47/16 13/48/16
f 22/49/17 13/50/17 23/51/17
f 19/52/18 23/53/18 24/54/18
f 20/55/19 24/56/19 21/57/19
f 25/58/20 26/59/20 27/60/20
f 28/61/21 29/62/21 30/63/21
f 26/64/22 31/65/22 32/66/22
f 33/67/23 29/68/23 28/69/23
f 3/70/24 31/71/24 25/72/24
f 25/73/25 24/74/25 23/75/25
f 33/76/26 26/77/26 32/78/26
f 26/79/27 30/80/27 24/81/27
f 31/82/28 5/83/28 33/84/28
f 5/85/29 29/86/29 34/87/29
f 29/88/30 13/89/30 21/90/30
f 1/91/31 7/92/31 2/93/31
f 2/94/32 7/95/32 4/96/32
f 4/97/33 8/98/33 6/99/33
f 7/100/34 1/101/34 8/102/34
f 6/103/35 8/104/35 9/105/35
f 8/106/36 1/107/36 11/108/36
f 3/109/37 12/110/37 11/111/37
f 3/112/38 6/113/38 10/114/38
f 3/115/39 23/116/39 13/117/39
f 14/118/40 17/119/40 15/120/40
f 9/121/41 14/122/41 16/123/41
f 17/124/42 14/125/42 9/126/42
f 15/127/43 17/128/43 11/129/43
f 16/130/44 15/131/44 12/132/44
f 18/133/45 22/134/45 19/135/45
f 18/136/46 20/137/46 21/138/46
f 22/139/47 18/140/47 13/141/47
f 19/142/48 22/143/48 23/144/48
f 20/145/49 19/146/49 24/147/49
f 26/148/50 25/149/50 31/150/50
f 33/151/51 34/152/51 29/153/51
f 3/154/52 2/155/52 31/156/52
f 23/157/53 3/158/53 25/159/53
f 25/160/54 27/161/54 24/162/54
f 33/163/55 28/164/55 26/165/55
f 24/166/56 27/167/56 26/168/56
f 26/169/57 28/170/57 30/171/57
f 30/172/58 21/173/58 24/174/58
f 33/175/59 32/176/59 31/177/59
f 31/178/60 2/179/60 5/180/60
f 5/181/61 34/182/61 33/183/61
f 5/184/62 6/185/62 29/186/62
f 21/187/63 30/188/63 29/189/63
f 29/190/64 6/191/64 13/192/64