# TONG Rift Division - exhaust tower (4x4 platform + 30deg leaning stack)
mtllib exhaust_tower.mtl
o exhaust_tower
v -2.0000 0.0000 -2.0000
v 2.0000 0.0000 -2.0000
v 2.0000 0.0000 2.0000
v -2.0000 0.0000 2.0000
v -2.0000 0.5000 -2.0000
v 2.0000 0.5000 -2.0000
v 2.0000 0.5000 2.0000
v -2.0000 0.5000 2.0000
v -1.2000 0.5000 -1.2000
v 1.2000 0.5000 -1.2000
v 1.2000 0.5000 1.2000
v -1.2000 0.5000 1.2000
v -1.2000 0.9000 -1.2000
v 1.2000 0.9000 -1.2000
v 1.2000 0.9000 1.2000
v -1.2000 0.9000 1.2000
v 1.2010 0.9000 0.4975
v 0.4975 0.9000 1.2010
v -0.4975 0.9000 1.2010
v -1.2010 0.9000 0.4975
v -1.2010 0.9000 -0.4975
v -0.4975 0.9000 -1.2010
v 0.4975 0.9000 -1.2010
v 1.2010 0.9000 -0.4975
v 1.6182 1.7125 0.4760
v 0.9451 1.7125 1.1491
v -0.0069 1.7125 1.1491
v -0.6800 1.7125 0.4760
v -0.6800 1.7125 -0.4760
v -0.0069 1.7125 -1.1491
v 0.9451 1.7125 -1.1491
v 1.6182 1.7125 -0.4760
v 2.0353 2.5250 0.4544
v 1.3926 2.5250 1.0971
v 0.4838 2.5250 1.0971
v -0.1589 2.5250 0.4544
v -0.1589 2.5250 -0.4544
v 0.4838 2.5250 -1.0971
v 1.3926 2.5250 -1.0971
v 2.0353 2.5250 -0.4544
v 2.4524 3.3375 0.4329
v 1.8402 3.3375 1.0451
v 0.9744 3.3375 1.0451
v 0.3622 3.3375 0.4329
v 0.3622 3.3375 -0.4329
v 0.9744 3.3375 -1.0451
v 1.8402 3.3375 -1.0451
v 2.4524 3.3375 -0.4329
v 2.8696 4.1500 0.4114
v 2.2878 4.1500 0.9932
v 1.4650 4.1500 0.9932
v 0.8832 4.1500 0.4114
v 0.8832 4.1500 -0.4114
v 1.4650 4.1500 -0.9932
v 2.2878 4.1500 -0.9932
v 2.8696 4.1500 -0.4114
v 3.2867 4.9625 0.3899
v 2.7353 4.9625 0.9412
v 1.9556 4.9625 0.9412
v 1.4043 4.9625 0.3899
v 1.4043 4.9625 -0.3899
v 1.9556 4.9625 -0.9412
v 2.7353 4.9625 -0.9412
v 3.2867 4.9625 -0.3899
v 3.7038 5.7750 0.3683
v 3.1829 5.7750 0.8892
v 2.4462 5.7750 0.8892
v 1.9253 5.7750 0.3683
v 1.9253 5.7750 -0.3683
v 2.4462 5.7750 -0.8892
v 3.1829 5.7750 -0.8892
v 3.7038 5.7750 -0.3683
v 4.1209 6.5875 0.3468
v 3.6305 6.5875 0.8373
v 2.9369 6.5875 0.8373
v 2.4464 6.5875 0.3468
v 2.4464 6.5875 -0.3468
v 2.9369 6.5875 -0.8373
v 3.6305 6.5875 -0.8373
v 4.1209 6.5875 -0.3468
v 4.5381 7.4000 0.3253
v 4.0781 7.4000 0.7853
v 3.4275 7.4000 0.7853
v 2.9675 7.4000 0.3253
v 2.9675 7.4000 -0.3253
v 3.4275 7.4000 -0.7853
v 4.0781 7.4000 -0.7853
v 4.5381 7.4000 -0.3253
v 4.2147 7.4000 0.1913
v 3.9441 7.4000 0.4619
v 3.5614 7.4000 0.4619
v 3.2908 7.4000 0.1913
v 3.2908 7.4000 -0.1913
v 3.5614 7.4000 -0.4619
v 3.9441 7.4000 -0.4619
v 4.2147 7.4000 -0.1913
v 4.2147 6.1000 0.1913
v 3.9441 6.1000 0.4619
v 3.5614 6.1000 0.4619
v 3.2908 6.1000 0.1913
v 3.2908 6.1000 -0.1913
v 3.5614 6.1000 -0.4619
v 3.9441 6.1000 -0.4619
v 4.2147 6.1000 -0.1913
v 3.7528 6.1000 0.0000
vt 0.01562 0.01562
vt 0.46875 0.01562
vt 0.46875 0.98438
vt 0.01562 0.98438
vt 0.01562 0.01562
vt 0.46875 0.01562
vt 0.46875 0.98438
vt 0.01562 0.98438
vt 0.51562 0.02344
vt 0.57324 0.02344
vt 0.57324 0.14258
vt 0.51562 0.14258
vt 0.57324 0.02344
vt 0.63086 0.02344
vt 0.63086 0.14258
vt 0.57324 0.14258
vt 0.63086 0.02344
vt 0.68848 0.02344
vt 0.68848 0.14258
vt 0.63086 0.14258
vt 0.68848 0.02344
vt 0.74609 0.02344
vt 0.74609 0.14258
vt 0.68848 0.14258
vt 0.74609 0.02344
vt 0.80371 0.02344
vt 0.80371 0.14258
vt 0.74609 0.14258
vt 0.80371 0.02344
vt 0.86133 0.02344
vt 0.86133 0.14258
vt 0.80371 0.14258
vt 0.86133 0.02344
vt 0.91895 0.02344
vt 0.91895 0.14258
vt 0.86133 0.14258
vt 0.91895 0.02344
vt 0.97656 0.02344
vt 0.97656 0.14258
vt 0.91895 0.14258
vt 0.51562 0.14258
vt 0.57324 0.14258
vt 0.57324 0.26172
vt 0.51562 0.26172
vt 0.57324 0.14258
vt 0.63086 0.14258
vt 0.63086 0.26172
vt 0.57324 0.26172
vt 0.63086 0.14258
vt 0.68848 0.14258
vt 0.68848 0.26172
vt 0.63086 0.26172
vt 0.68848 0.14258
vt 0.74609 0.14258
vt 0.74609 0.26172
vt 0.68848 0.26172
vt 0.74609 0.14258
vt 0.80371 0.14258
vt 0.80371 0.26172
vt 0.74609 0.26172
vt 0.80371 0.14258
vt 0.86133 0.14258
vt 0.86133 0.26172
vt 0.80371 0.26172
vt 0.86133 0.14258
vt 0.91895 0.14258
vt 0.91895 0.26172
vt 0.86133 0.26172
vt 0.91895 0.14258
vt 0.97656 0.14258
vt 0.97656 0.26172
vt 0.91895 0.26172
vt 0.51562 0.26172
vt 0.57324 0.26172
vt 0.57324 0.38086
vt 0.51562 0.38086
vt 0.57324 0.26172
vt 0.63086 0.26172
vt 0.63086 0.38086
vt 0.57324 0.38086
vt 0.63086 0.26172
vt 0.68848 0.26172
vt 0.68848 0.38086
vt 0.63086 0.38086
vt 0.68848 0.26172
vt 0.74609 0.26172
vt 0.74609 0.38086
vt 0.68848 0.38086
vt 0.74609 0.26172
vt 0.80371 0.26172
vt 0.80371 0.38086
vt 0.74609 0.38086
vt 0.80371 0.26172
vt 0.86133 0.26172
vt 0.86133 0.38086
vt 0.80371 0.38086
vt 0.86133 0.26172
vt 0.91895 0.26172
vt 0.91895 0.38086
vt 0.86133 0.38086
vt 0.91895 0.26172
vt 0.97656 0.26172
vt 0.97656 0.38086
vt 0.91895 0.38086
vt 0.51562 0.38086
vt 0.57324 0.38086
vt 0.57324 0.50000
vt 0.51562 0.50000
vt 0.57324 0.38086
vt 0.63086 0.38086
vt 0.63086 0.50000
vt 0.57324 0.50000
vt 0.63086 0.38086
vt 0.68848 0.38086
vt 0.68848 0.50000
vt 0.63086 0.50000
vt 0.68848 0.38086
vt 0.74609 0.38086
vt 0.74609 0.50000
vt 0.68848 0.50000
vt 0.74609 0.38086
vt 0.80371 0.38086
vt 0.80371 0.50000
vt 0.74609 0.50000
vt 0.80371 0.38086
vt 0.86133 0.38086
vt 0.86133 0.50000
vt 0.80371 0.50000
vt 0.86133 0.38086
vt 0.91895 0.38086
vt 0.91895 0.50000
vt 0.86133 0.50000
vt 0.91895 0.38086
vt 0.97656 0.38086
vt 0.97656 0.50000
vt 0.91895 0.50000
vt 0.51562 0.50000
vt 0.57324 0.50000
vt 0.57324 0.61914
vt 0.51562 0.61914
vt 0.57324 0.50000
vt 0.63086 0.50000
vt 0.63086 0.61914
vt 0.57324 0.61914
vt 0.63086 0.50000
vt 0.68848 0.50000
vt 0.68848 0.61914
vt 0.63086 0.61914
vt 0.68848 0.50000
vt 0.74609 0.50000
vt 0.74609 0.61914
vt 0.68848 0.61914
vt 0.74609 0.50000
vt 0.80371 0.50000
vt 0.80371 0.61914
vt 0.74609 0.61914
vt 0.80371 0.50000
vt 0.86133 0.50000
vt 0.86133 0.61914
vt 0.80371 0.61914
vt 0.86133 0.50000
vt 0.91895 0.50000
vt 0.91895 0.61914
vt 0.86133 0.61914
vt 0.91895 0.50000
vt 0.97656 0.50000
vt 0.97656 0.61914
vt 0.91895 0.61914
vt 0.51562 0.61914
vt 0.57324 0.61914
vt 0.57324 0.73828
vt 0.51562 0.73828
vt 0.57324 0.61914
vt 0.63086 0.61914
vt 0.63086 0.73828
vt 0.57324 0.73828
vt 0.63086 0.61914
vt 0.68848 0.61914
vt 0.68848 0.73828
vt 0.63086 0.73828
vt 0.68848 0.61914
vt 0.74609 0.61914
vt 0.74609 0.73828
vt 0.68848 0.73828
vt 0.74609 0.61914
vt 0.80371 0.61914
vt 0.80371 0.73828
vt 0.74609 0.73828
vt 0.80371 0.61914
vt 0.86133 0.61914
vt 0.86133 0.73828
vt 0.80371 0.73828
vt 0.86133 0.61914
vt 0.91895 0.61914
vt 0.91895 0.73828
vt 0.86133 0.73828
vt 0.91895 0.61914
vt 0.97656 0.61914
vt 0.97656 0.73828
vt 0.91895 0.73828
vt 0.51562 0.73828
vt 0.57324 0.73828
vt 0.57324 0.85742
vt 0.51562 0.85742
vt 0.57324 0.73828
vt 0.63086 0.73828
vt 0.63086 0.85742
vt 0.57324 0.85742
vt 0.63086 0.73828
vt 0.68848 0.73828
vt 0.68848 0.85742
vt 0.63086 0.85742
vt 0.68848 0.73828
vt 0.74609 0.73828
vt 0.74609 0.85742
vt 0.68848 0.85742
vt 0.74609 0.73828
vt 0.80371 0.73828
vt 0.80371 0.85742
vt 0.74609 0.85742
vt 0.80371 0.73828
vt 0.86133 0.73828
vt 0.86133 0.85742
vt 0.80371 0.85742
vt 0.86133 0.73828
vt 0.91895 0.73828
vt 0.91895 0.85742
vt 0.86133 0.85742
vt 0.91895 0.73828
vt 0.97656 0.73828
vt 0.97656 0.85742
vt 0.91895 0.85742
vt 0.51562 0.85742
vt 0.57324 0.85742
vt 0.57324 0.97656
vt 0.51562 0.97656
vt 0.57324 0.85742
vt 0.63086 0.85742
vt 0.63086 0.97656
vt 0.57324 0.97656
vt 0.63086 0.85742
vt 0.68848 0.85742
vt 0.68848 0.97656
vt 0.63086 0.97656
vt 0.68848 0.85742
vt 0.74609 0.85742
vt 0.74609 0.97656
vt 0.68848 0.97656
vt 0.74609 0.85742
vt 0.80371 0.85742
vt 0.80371 0.97656
vt 0.74609 0.97656
vt 0.80371 0.85742
vt 0.86133 0.85742
vt 0.86133 0.97656
vt 0.80371 0.97656
vt 0.86133 0.85742
vt 0.91895 0.85742
vt 0.91895 0.97656
vt 0.86133 0.97656
vt 0.91895 0.85742
vt 0.97656 0.85742
vt 0.97656 0.97656
vt 0.91895 0.97656
vt 0.02344 0.90625
vt 0.09375 0.90625
vt 0.09375 0.97656
vt 0.02344 0.97656
vn 0.0000 -1.0000 0.0000
vn 0.0000 1.0000 0.0000
vn 0.0000 0.0000 -1.0000
vn 1.0000 0.0000 0.0000
vn 0.0000 -0.0000 1.0000
vn -1.0000 0.0000 0.0000
vn 0.0000 -1.0000 0.0000
vn 0.0000 1.0000 0.0000
vn 0.0000 0.0000 -1.0000
vn 1.0000 0.0000 0.0000
vn 0.0000 -0.0000 1.0000
vn -1.0000 0.0000 0.0000
vn -0.6686 0.3255 -0.6686
vn -0.0000 -0.0638 -0.9980
vn 0.6394 -0.4270 -0.6394
vn 0.8418 -0.5398 -0.0000
vn 0.6394 -0.4270 0.6394
vn -0.0000 -0.0638 0.9980
vn -0.6686 0.3255 0.6686
vn -0.8896 0.4567 -0.0000
vn -0.6686 0.3255 -0.6686
vn -0.0000 -0.0638 -0.9980
vn 0.6394 -0.4270 -0.6394
vn 0.8418 -0.5398 0.0000
vn 0.6394 -0.4270 0.6394
vn -0.0000 -0.0638 0.9980
vn -0.6686 0.3255 0.6686
vn -0.8896 0.4567 0.0000
vn -0.6686 0.3255 -0.6686
vn -0.0000 -0.0638 -0.9980
vn 0.6394 -0.4270 -0.6394
vn 0.8418 -0.5398 0.0000
vn 0.6394 -0.4270 0.6394
vn -0.0000 -0.0638 0.9980
vn -0.6686 0.3255 0.6686
vn -0.8896 0.4567 0.0000
vn -0.6686 0.3255 -0.6686
vn -0.0000 -0.0638 -0.9980
vn 0.6394 -0.4270 -0.6394
vn 0.8418 -0.5398 -0.0000
vn 0.6394 -0.4270 0.6394
vn -0.0000 -0.0638 0.9980
vn -0.6686 0.3255 0.6686
vn -0.8896 0.4567 0.0000
vn -0.6686 0.3255 -0.6686
vn -0.0000 -0.0638 -0.9980
vn 0.6394 -0.4270 -0.6394
vn 0.8418 -0.5398 -0.0000
vn 0.6394 -0.4270 0.6394
vn -0.0000 -0.0638 0.9980
vn -0.6686 0.3255 0.6686
vn -0.8896 0.4567 -0.0000
vn -0.6686 0.3255 -0.6686
vn -0.0000 -0.0638 -0.9980
vn 0.6394 -0.4270 -0.6394
vn 0.8418 -0.5398 -0.0000
vn 0.6394 -0.4270 0.6394
vn -0.0000 -0.0638 0.9980
vn -0.6686 0.3255 0.6686
vn -0.8896 0.4567 0.0000
vn -0.6686 0.3255 -0.6686
vn -0.0000 -0.0638 -0.9980
vn 0.6394 -0.4270 -0.6394
vn 0.8418 -0.5398 0.0000
vn 0.6394 -0.4270 0.6394
vn -0.0000 -0.0638 0.9980
vn -0.6686 0.3255 0.6686
vn -0.8896 0.4567 0.0000
vn -0.6686 0.3255 -0.6686
vn -0.0000 -0.0638 -0.9980
vn 0.6394 -0.4270 -0.6394
vn 0.8418 -0.5398 0.0000
vn 0.6394 -0.4270 0.6394
vn -0.0000 -0.0638 0.9980
vn -0.6686 0.3255 0.6686
vn -0.8896 0.4567 0.0000
vn 0.0000 -1.0000 0.0000
vn -0.0000 -1.0000 0.0000
vn 0.0000 -1.0000 0.0000
vn 0.0000 -1.0000 0.0000
vn 0.0000 -1.0000 0.0000
vn 0.0000 -1.0000 0.0000
vn 0.0000 -1.0000 0.0000
vn 0.0000 -1.0000 0.0000
vn 0.7071 0.0000 0.7071
vn 0.0000 0.0000 1.0000
vn -0.7071 0.0000 0.7071
vn -1.0000 0.0000 -0.0000
vn -0.7071 0.0000 -0.7071
vn 0.0000 0.0000 -1.0000
vn 0.7071 0.0000 -0.7071
vn 1.0000 0.0000 -0.0000
vn 0.0000 1.0000 0.0000
vn 0.0000 1.0000 0.0000
vn 0.0000 1.0000 0.0000
vn 0.0000 1.0000 0.0000
vn -0.0000 1.0000 0.0000
vn 0.0000 1.0000 0.0000
vn 0.0000 1.0000 -0.0000
vn 0.0000 1.0000 -0.0000
usemtl tower
s off
f 1/1/1 2/2/1 3/3/1 4/4/1
f 5/1/2 8/2/2 7/3/2 6/4/2
f 1/1/3 5/2/3 6/3/3 2/4/3
f 2/1/4 6/2/4 7/3/4 3/4/4
f 3/1/5 7/2/5 8/3/5 4/4/5
f 4/1/6 8/2/6 5/3/6 1/4/6
f 9/5/7 10/6/7 11/7/7 12/8/7
f 13/5/8 16/6/8 15/7/8 14/8/8
f 9/5/9 13/6/9 14/7/9 10/8/9
f 10/5/10 14/6/10 15/7/10 11/8/10
f 11/5/11 15/6/11 16/7/11 12/8/11
f 12/5/12 16/6/12 13/7/12 9/8/12
f 17/9/13 18/10/13 26/11/13 25/12/13
f 18/13/14 19/14/14 27/15/14 26/16/14
f 19/17/15 20/18/15 28/19/15 27/20/15
f 20/21/16 21/22/16 29/23/16 28/24/16
f 21/25/17 22/26/17 30/27/17 29/28/17
f 22/29/18 23/30/18 31/31/18 30/32/18
f 23/33/19 24/34/19 32/35/19 31/36/19
f 24/37/20 17/38/20 25/39/20 32/40/20
f 25/41/21 26/42/21 34/43/21 33/44/21
f 26/45/22 27/46/22 35/47/22 34/48/22
f 27/49/23 28/50/23 36/51/23 35/52/23
f 28/53/24 29/54/24 37/55/24 36/56/24
f 29/57/25 30/58/25 38/59/25 37/60/25
f 30/61/26 31/62/26 39/63/26 38/64/26
f 31/65/27 32/66/27 40/67/27 39/68/27
f 32/69/28 25/70/28 33/71/28 40/72/28
f 33/73/29 34/74/29 42/75/29 41/76/29
f 34/77/30 35/78/30 43/79/30 42/80/30
f 35/81/31 36/82/31 44/83/31 43/84/31
f 36/85/32 37/86/32 45/87/32 44/88/32
f 37/89/33 38/90/33 46/91/33 45/92/33
f 38/93/34 39/94/34 47/95/34 46/96/34
f 39/97/35 40/98/35 48/99/35 47/100/35
f 40/101/36 33/102/36 41/103/36 48/104/36
f 41/105/37 42/106/37 50/107/37 49/108/37
f 42/109/38 43/110/38 51/111/38 50/112/38
f 43/113/39 44/114/39 52/115/39 51/116/39
f 44/117/40 45/118/40 53/119/40 52/120/40
f 45/121/41 46/122/41 54/123/41 53/124/41
f 46/125/42 47/126/42 55/127/42 54/128/42
f 47/129/43 48/130/43 56/131/43 55/132/43
f 48/133/44 41/134/44 49/135/44 56/136/44
f 49/137/45 50/138/45 58/139/45 57/140/45
f 50/141/46 51/142/46 59/143/46 58/144/46
f 51/145/47 52/146/47 60/147/47 59/148/47
f 52/149/48 53/150/48 61/151/48 60/152/48
f 53/153/49 54/154/49 62/155/49 61/156/49
f 54/157/50 55/158/50 63/159/50 62/160/50
f 55/161/51 56/162/51 64/163/51 63/164/51
f 56/165/52 49/166/52 57/167/52 64/168/52
f 57/169/53 58/170/53 66/171/53 65/172/53
f 58/173/54 59/174/54 67/175/54 66/176/54
f 59/177/55 60/178/55 68/179/55 67/180/55
f 60/181/56 61/182/56 69/183/56 68/184/56
f 61/185/57 62/186/57 70/187/57 69/188/57
f 62/189/58 63/190/58 71/191/58 70/192/58
f 63/193/59 64/194/59 72/195/59 71/196/59
f 64/197/60 57/198/60 65/199/60 72/200/60
f 65/201/61 66/202/61 74/203/61 73/204/61
f 66/205/62 67/206/62 75/207/62 74/208/62
f 67/209/63 68/210/63 76/211/63 75/212/63
f 68/213/64 69/214/64 77/215/64 76/216/64
f 69/217/65 70/218/65 78/219/65 77/220/65
f 70/221/66 71/222/66 79/223/66 78/224/66
f 71/225/67 72/226/67 80/227/67 79/228/67
f 72/229/68 65/230/68 73/231/68 80/232/68
f 73/233/69 74/234/69 82/235/69 81/236/69
f 74/237/70 75/238/70 83/239/70 82/240/70
f 75/241/71 76/242/71 84/243/71 83/244/71
f 76/245/72 77/246/72 85/247/72 84/248/72
f 77/249/73 78/250/73 86/251/73 85/252/73
f 78/253/74 79/254/74 87/255/74 86/256/74
f 79/257/75 80/258/75 88/259/75 87/260/75
f 80/261/76 73/262/76 81/263/76 88/264/76
f 81/265/77 82/266/77 90/267/77 89/268/77
f 82/265/78 83/266/78 91/267/78 90/268/78
f 83/265/79 84/266/79 92/267/79 91/268/79
f 84/265/80 85/266/80 93/267/80 92/268/80
f 85/265/81 86/266/81 94/267/81 93/268/81
f 86/265/82 87/266/82 95/267/82 94/268/82
f 87/265/83 88/266/83 96/267/83 95/268/83
f 88/265/84 81/266/84 89/267/84 96/268/84
f 89/265/85 90/266/85 98/267/85 97/268/85
f 90/265/86 91/266/86 99/267/86 98/268/86
f 91/265/87 92/266/87 100/267/87 99/268/87
f 92/265/88 93/266/88 101/267/88 100/268/88
f 93/265/89 94/266/89 102/267/89 101/268/89
f 94/265/90 95/266/90 103/267/90 102/268/90
f 95/265/91 96/266/91 104/267/91 103/268/91
f 96/265/92 89/266/92 97/267/92 104/268/92
f 97/265/93 105/266/93 98/267/93
f 98/265/94 105/266/94 99/267/94
f 99/265/95 105/266/95 100/267/95
f 100/265/96 105/266/96 101/267/96
f 101/265/97 105/266/97 102/267/97
f 102/265/98 105/266/98 103/267/98
f 103/265/99 105/266/99 104/267/99
f 104/265/100 105/266/100 97/267/100
