# TONG Rift Division - firebox (3x3x5 furnace tower)
mtllib firebox_model.mtl
o firebox
v -1.5000 0.0000 -1.5000
v 1.5000 0.0000 -1.5000
v 1.5000 0.0000 1.5000
v -1.5000 0.0000 1.5000
v -1.5000 5.0000 -1.5000
v 1.5000 5.0000 -1.5000
v 1.5000 5.0000 1.5000
v -1.5000 5.0000 1.5000
v -1.5600 0.0000 -1.5600
v -1.0800 0.0000 -1.5600
v -1.0800 0.0000 -1.0800
v -1.5600 0.0000 -1.0800
v -1.5600 5.0000 -1.5600
v -1.0800 5.0000 -1.5600
v -1.0800 5.0000 -1.0800
v -1.5600 5.0000 -1.0800
v 1.0800 0.0000 -1.5600
v 1.5600 0.0000 -1.5600
v 1.5600 0.0000 -1.0800
v 1.0800 0.0000 -1.0800
v 1.0800 5.0000 -1.5600
v 1.5600 5.0000 -1.5600
v 1.5600 5.0000 -1.0800
v 1.0800 5.0000 -1.0800
v -1.5600 0.0000 1.0800
v -1.0800 0.0000 1.0800
v -1.0800 0.0000 1.5600
v -1.5600 0.0000 1.5600
v -1.5600 5.0000 1.0800
v -1.0800 5.0000 1.0800
v -1.0800 5.0000 1.5600
v -1.5600 5.0000 1.5600
v 1.0800 0.0000 1.0800
v 1.5600 0.0000 1.0800
v 1.5600 0.0000 1.5600
v 1.0800 0.0000 1.5600
v 1.0800 5.0000 1.0800
v 1.5600 5.0000 1.0800
v 1.5600 5.0000 1.5600
v 1.0800 5.0000 1.5600
v -1.5600 4.8200 -1.5600
v 1.5600 4.8200 -1.5600
v 1.5600 4.8200 1.5600
v -1.5600 4.8200 1.5600
v -1.5600 5.0200 -1.5600
v 1.5600 5.0200 -1.5600
v 1.5600 5.0200 1.5600
v -1.5600 5.0200 1.5600
v -1.5600 -0.0200 -1.5600
v 1.5600 -0.0200 -1.5600
v 1.5600 -0.0200 1.5600
v -1.5600 -0.0200 1.5600
v -1.5600 0.1800 -1.5600
v 1.5600 0.1800 -1.5600
v 1.5600 0.1800 1.5600
v -1.5600 0.1800 1.5600
v -1.5400 2.4000 -1.5400
v 1.5400 2.4000 -1.5400
v 1.5400 2.4000 1.5400
v -1.5400 2.4000 1.5400
v -1.5400 2.7000 -1.5400
v 1.5400 2.7000 -1.5400
v 1.5400 2.7000 1.5400
v -1.5400 2.7000 1.5400
v -0.7500 0.3500 1.5000
v 0.7500 0.3500 1.5000
v 0.7500 0.3500 1.6200
v -0.7500 0.3500 1.6200
v -0.7500 2.0500 1.5000
v 0.7500 2.0500 1.5000
v 0.7500 2.0500 1.6200
v -0.7500 2.0500 1.6200
v -0.6000 0.2000 1.5000
v 0.6000 0.2000 1.5000
v 0.6000 0.2000 1.6000
v -0.6000 0.2000 1.6000
v -0.6000 0.4000 1.5000
v 0.6000 0.4000 1.5000
v 0.6000 0.4000 1.6000
v -0.6000 0.4000 1.6000
v -1.6800 0.3500 -0.3000
v -1.5000 0.3500 -0.3000
v -1.5000 0.3500 0.3000
v -1.6800 0.3500 0.3000
v -1.6800 0.9500 -0.3000
v -1.5000 0.9500 -0.3000
v -1.5000 0.9500 0.3000
v -1.6800 0.9500 0.3000
v 1.5000 0.3500 -0.3000
v 1.6800 0.3500 -0.3000
v 1.6800 0.3500 0.3000
v 1.5000 0.3500 0.3000
v 1.5000 0.9500 -0.3000
v 1.6800 0.9500 -0.3000
v 1.6800 0.9500 0.3000
v 1.5000 0.9500 0.3000
v -0.3000 0.3500 -1.6800
v 0.3000 0.3500 -1.6800
v 0.3000 0.3500 -1.5000
v -0.3000 0.3500 -1.5000
v -0.3000 0.9500 -1.6800
v 0.3000 0.9500 -1.6800
v 0.3000 0.9500 -1.5000
v -0.3000 0.9500 -1.5000
v -0.6200 5.0000 -0.6200
v 0.6200 5.0000 -0.6200
v 0.6200 5.0000 0.6200
v -0.6200 5.0000 0.6200
v -0.6200 5.4000 -0.6200
v 0.6200 5.4000 -0.6200
v 0.6200 5.4000 0.6200
v -0.6200 5.4000 0.6200
v -0.4400 5.0000 -0.4400
v 0.4400 5.0000 -0.4400
v 0.4400 5.0000 0.4400
v -0.4400 5.0000 0.4400
v -0.4400 5.3400 -0.4400
v 0.4400 5.3400 -0.4400
v 0.4400 5.3400 0.4400
v -0.4400 5.3400 0.4400
vt 0.00781 0.01562
vt 0.58594 0.01562
vt 0.58594 0.99219
vt 0.00781 0.99219
vt 0.59375 0.01562
vt 0.74219 0.01562
vt 0.74219 0.99219
vt 0.59375 0.99219
vt 0.59375 0.01562
vt 0.74219 0.01562
vt 0.74219 0.99219
vt 0.59375 0.99219
vt 0.59375 0.01562
vt 0.74219 0.01562
vt 0.74219 0.99219
vt 0.59375 0.99219
vt 0.59375 0.01562
vt 0.74219 0.01562
vt 0.74219 0.99219
vt 0.59375 0.99219
vt 0.59375 0.01562
vt 0.74219 0.01562
vt 0.74219 0.99219
vt 0.59375 0.99219
vt 0.59375 0.01562
vt 0.74219 0.01562
vt 0.74219 0.99219
vt 0.59375 0.99219
vt 0.59375 0.01562
vt 0.74219 0.01562
vt 0.74219 0.99219
vt 0.59375 0.99219
vt 0.75000 0.53125
vt 0.98438 0.53125
vt 0.98438 0.99219
vt 0.75000 0.99219
vt 0.75000 0.53125
vt 0.98438 0.53125
vt 0.98438 0.99219
vt 0.75000 0.99219
vt 0.59375 0.01562
vt 0.74219 0.01562
vt 0.74219 0.99219
vt 0.59375 0.99219
vt 0.59375 0.01562
vt 0.74219 0.01562
vt 0.74219 0.99219
vt 0.59375 0.99219
vt 0.59375 0.01562
vt 0.74219 0.01562
vt 0.74219 0.99219
vt 0.59375 0.99219
vt 0.59375 0.01562
vt 0.74219 0.01562
vt 0.74219 0.99219
vt 0.59375 0.99219
vt 0.75000 0.29688
vt 0.97656 0.29688
vt 0.97656 0.51562
vt 0.75000 0.51562
vn 0.0000 -1.0000 0.0000
vn 0.0000 1.0000 0.0000
vn 0.0000 0.0000 -1.0000
vn 1.0000 0.0000 0.0000
vn 0.0000 -0.0000 1.0000
vn -1.0000 0.0000 0.0000
vn 0.0000 -1.0000 0.0000
vn 0.0000 1.0000 0.0000
vn 0.0000 0.0000 -1.0000
vn 1.0000 0.0000 0.0000
vn 0.0000 -0.0000 1.0000
vn -1.0000 0.0000 0.0000
vn 0.0000 -1.0000 0.0000
vn 0.0000 1.0000 0.0000
vn 0.0000 0.0000 -1.0000
vn 1.0000 0.0000 0.0000
vn 0.0000 -0.0000 1.0000
vn -1.0000 0.0000 0.0000
vn 0.0000 -1.0000 0.0000
vn 0.0000 1.0000 0.0000
vn 0.0000 0.0000 -1.0000
vn 1.0000 0.0000 0.0000
vn 0.0000 -0.0000 1.0000
vn -1.0000 0.0000 0.0000
vn 0.0000 -1.0000 0.0000
vn 0.0000 1.0000 0.0000
vn 0.0000 0.0000 -1.0000
vn 1.0000 0.0000 0.0000
vn 0.0000 -0.0000 1.0000
vn -1.0000 0.0000 0.0000
vn 0.0000 -1.0000 0.0000
vn 0.0000 1.0000 0.0000
vn 0.0000 0.0000 -1.0000
vn 1.0000 0.0000 0.0000
vn 0.0000 -0.0000 1.0000
vn -1.0000 0.0000 0.0000
vn 0.0000 -1.0000 0.0000
vn 0.0000 1.0000 0.0000
vn 0.0000 0.0000 -1.0000
vn 1.0000 0.0000 0.0000
vn 0.0000 -0.0000 1.0000
vn -1.0000 0.0000 0.0000
vn 0.0000 -1.0000 0.0000
vn 0.0000 1.0000 0.0000
vn 0.0000 0.0000 -1.0000
vn 1.0000 0.0000 0.0000
vn 0.0000 -0.0000 1.0000
vn -1.0000 0.0000 0.0000
vn 0.0000 -1.0000 0.0000
vn 0.0000 1.0000 0.0000
vn 0.0000 0.0000 -1.0000
vn 1.0000 0.0000 0.0000
vn 0.0000 -0.0000 1.0000
vn -1.0000 0.0000 0.0000
vn 0.0000 -1.0000 0.0000
vn 0.0000 1.0000 0.0000
vn 0.0000 0.0000 -1.0000
vn 1.0000 0.0000 0.0000
vn 0.0000 -0.0000 1.0000
vn -1.0000 0.0000 0.0000
vn 0.0000 -1.0000 0.0000
vn 0.0000 1.0000 0.0000
vn 0.0000 0.0000 -1.0000
vn 1.0000 0.0000 0.0000
vn 0.0000 -0.0000 1.0000
vn -1.0000 0.0000 0.0000
vn 0.0000 -1.0000 0.0000
vn 0.0000 1.0000 0.0000
vn 0.0000 0.0000 -1.0000
vn 1.0000 0.0000 0.0000
vn 0.0000 -0.0000 1.0000
vn -1.0000 0.0000 0.0000
vn 0.0000 -1.0000 0.0000
vn 0.0000 1.0000 0.0000
vn 0.0000 0.0000 -1.0000
vn 1.0000 0.0000 0.0000
vn 0.0000 -0.0000 1.0000
vn -1.0000 0.0000 0.0000
vn 0.0000 -1.0000 0.0000
vn 0.0000 1.0000 0.0000
vn 0.0000 0.0000 -1.0000
vn 1.0000 0.0000 0.0000
vn 0.0000 -0.0000 1.0000
vn -1.0000 0.0000 0.0000
vn 0.0000 -1.0000 0.0000
vn 0.0000 1.0000 0.0000
vn 0.0000 0.0000 -1.0000
vn 1.0000 0.0000 0.0000
vn 0.0000 -0.0000 1.0000
vn -1.0000 0.0000 0.0000
usemtl firebox
s off
f 1/1/1 2/2/1 3/3/1 4/4/1
f 5/1/2 8/2/2 7/3/2 6/4/2
f 1/1/3 5/2/3 6/3/3 2/4/3
f 2/1/4 6/2/4 7/3/4 3/4/4
f 3/1/5 7/2/5 8/3/5 4/4/5
f 4/1/6 8/2/6 5/3/6 1/4/6
f 9/5/7 10/6/7 11/7/7 12/8/7
f 13/5/8 16/6/8 15/7/8 14/8/8
f 9/5/9 13/6/9 14/7/9 10/8/9
f 10/5/10 14/6/10 15/7/10 11/8/10
f 11/5/11 15/6/11 16/7/11 12/8/11
f 12/5/12 16/6/12 13/7/12 9/8/12
f 17/9/13 18/10/13 19/11/13 20/12/13
f 21/9/14 24/10/14 23/11/14 22/12/14
f 17/9/15 21/10/15 22/11/15 18/12/15
f 18/9/16 22/10/16 23/11/16 19/12/16
f 19/9/17 23/10/17 24/11/17 20/12/17
f 20/9/18 24/10/18 21/11/18 17/12/18
f 25/13/19 26/14/19 27/15/19 28/16/19
f 29/13/20 32/14/20 31/15/20 30/16/20
f 25/13/21 29/14/21 30/15/21 26/16/21
f 26/13/22 30/14/22 31/15/22 27/16/22
f 27/13/23 31/14/23 32/15/23 28/16/23
f 28/13/24 32/14/24 29/15/24 25/16/24
f 33/17/25 34/18/25 35/19/25 36/20/25
f 37/17/26 40/18/26 39/19/26 38/20/26
f 33/17/27 37/18/27 38/19/27 34/20/27
f 34/17/28 38/18/28 39/19/28 35/20/28
f 35/17/29 39/18/29 40/19/29 36/20/29
f 36/17/30 40/18/30 37/19/30 33/20/30
f 41/21/31 42/22/31 43/23/31 44/24/31
f 45/21/32 48/22/32 47/23/32 46/24/32
f 41/21/33 45/22/33 46/23/33 42/24/33
f 42/21/34 46/22/34 47/23/34 43/24/34
f 43/21/35 47/22/35 48/23/35 44/24/35
f 44/21/36 48/22/36 45/23/36 41/24/36
f 49/25/37 50/26/37 51/27/37 52/28/37
f 53/25/38 56/26/38 55/27/38 54/28/38
f 49/25/39 53/26/39 54/27/39 50/28/39
f 50/25/40 54/26/40 55/27/40 51/28/40
f 51/25/41 55/26/41 56/27/41 52/28/41
f 52/25/42 56/26/42 53/27/42 49/28/42
f 57/29/43 58/30/43 59/31/43 60/32/43
f 61/29/44 64/30/44 63/31/44 62/32/44
f 57/29/45 61/30/45 62/31/45 58/32/45
f 58/29/46 62/30/46 63/31/46 59/32/46
f 59/29/47 63/30/47 64/31/47 60/32/47
f 60/29/48 64/30/48 61/31/48 57/32/48
f 65/33/49 66/34/49 67/35/49 68/36/49
f 69/33/50 72/34/50 71/35/50 70/36/50
f 65/33/51 69/34/51 70/35/51 66/36/51
f 66/33/52 70/34/52 71/35/52 67/36/52
f 67/33/53 71/34/53 72/35/53 68/36/53
f 68/33/54 72/34/54 69/35/54 65/36/54
f 73/37/55 74/38/55 75/39/55 76/40/55
f 77/37/56 80/38/56 79/39/56 78/40/56
f 73/37/57 77/38/57 78/39/57 74/40/57
f 74/37/58 78/38/58 79/39/58 75/40/58
f 75/37/59 79/38/59 80/39/59 76/40/59
f 76/37/60 80/38/60 77/39/60 73/40/60
f 81/41/61 82/42/61 83/43/61 84/44/61
f 85/41/62 88/42/62 87/43/62 86/44/62
f 81/41/63 85/42/63 86/43/63 82/44/63
f 82/41/64 86/42/64 87/43/64 83/44/64
f 83/41/65 87/42/65 88/43/65 84/44/65
f 84/41/66 88/42/66 85/43/66 81/44/66
f 89/45/67 90/46/67 91/47/67 92/48/67
f 93/45/68 96/46/68 95/47/68 94/48/68
f 89/45/69 93/46/69 94/47/69 90/48/69
f 90/45/70 94/46/70 95/47/70 91/48/70
f 91/45/71 95/46/71 96/47/71 92/48/71
f 92/45/72 96/46/72 93/47/72 89/48/72
f 97/49/73 98/50/73 99/51/73 100/52/73
f 101/49/74 104/50/74 103/51/74 102/52/74
f 97/49/75 101/50/75 102/51/75 98/52/75
f 98/49/76 102/50/76 103/51/76 99/52/76
f 99/49/77 103/50/77 104/51/77 100/52/77
f 100/49/78 104/50/78 101/51/78 97/52/78
f 105/53/79 106/54/79 107/55/79 108/56/79
f 109/53/80 112/54/80 111/55/80 110/56/80
f 105/53/81 109/54/81 110/55/81 106/56/81
f 106/53/82 110/54/82 111/55/82 107/56/82
f 107/53/83 111/54/83 112/55/83 108/56/83
f 108/53/84 112/54/84 109/55/84 105/56/84
f 113/57/85 114/58/85 115/59/85 116/60/85
f 117/57/86 120/58/86 119/59/86 118/60/86
f 113/57/87 117/58/87 118/59/87 114/60/87
f 114/57/88 118/58/88 119/59/88 115/60/88
f 115/57/89 119/58/89 120/59/89 116/60/89
f 116/57/90 120/58/90 117/59/90 113/60/90
