# Made in Blockbench 5.1.5
mtllib handle.mtl

o Цилиндр
v 0.005522625000000059 0.570164625 0.5576297291666668
v -0.0521355 0.53687525 0.22865910416666663
v -0.0521355 0.53687525 0.5576297291666668
v -0.0521355 0.470297125 0.5576297291666668
v -0.0521355 0.470297125 0.22865910416666663
v 0.005522625000000059 0.437008375 0.5576297291666668
v 0.005522625000000003 0.437008375 0.22865910416666663
v 0.06318075000000006 0.470297125 0.5576297291666668
v 0.005522625000000003 0.570164625 0.22865910416666663
v 0.06318075000000001 0.470297125 0.22865910416666663
v 0.06318075000000006 0.53687525 0.5576297291666668
v 0.06318075000000001 0.53687525 0.22865910416666663
v 0.5392226250000001 0.3460865 0.6604278541666666
v 0.6246545000000001 0.409333375 0.5549541041666667
v 0.6246545000000001 0.409333375 0.6604278541666666
v 0.5392226250000001 0.6521202500000001 0.6604278541666666
v 0.6246545000000001 0.588873375 0.5549541041666667
v 0.5392226250000001 0.6521202500000001 0.5549541041666667
v -0.013727375000000097 0.390072125 0.6604278541666667
v -0.09915925000000014 0.4669115 0.5549541041666668
v -0.013727375000000097 0.390072125 0.5549541041666668
v -0.013727375000000097 0.608134625 0.5549541041666668
v -0.09915925000000014 0.53129525 0.6604278541666667
v -0.013727375000000097 0.608134625 0.6604278541666667
v 0.5392226250000001 0.3460865 0.5549541041666667
v -0.09915925000000014 0.4669115 0.6604278541666667
v 0.6246545000000001 0.588873375 0.6604278541666666
v -0.09915925000000014 0.53129525 0.5549541041666668
v 0.3743676250000001 0.55088025 0.7468591041666667
v 0.44759075000000004 0.624103375 0.9982678541666667
v 0.44759075 0.624103375 0.7468591041666667
v 0.3743676250000001 0.4473265 0.7468591041666667
v 0.3743676250000001 0.55088025 0.9982678541666667
v 0.44759075 0.374103375 0.7468591041666667
v 0.3743676250000001 0.4473265 0.9982678541666667
v 0.5511445000000001 0.374103375 0.7468591041666667
v 0.44759075000000004 0.374103375 0.9982678541666667
v 0.6243676250000001 0.4473265 0.9982678541666667
v 0.5511445000000001 0.374103375 0.9982678541666667
v 0.6243676250000001 0.55088025 0.7468591041666667
v 0.6243676250000001 0.4473265 0.7468591041666667
v 0.5511445000000001 0.624103375 0.9982678541666667
v 0.5511445000000001 0.624103375 0.7468591041666667
v 0.6243676250000001 0.55088025 0.9982678541666667
v 0.4594845 0.59539025 0.7468591041666667
v 0.4030807500000001 0.538987125 0.7468591041666667
v 0.4030807500000001 0.45922025 0.7468591041666667
v 0.4594845 0.4028165 0.7468591041666667
v 0.5392513750000001 0.4028165 0.7468591041666667
v 0.5956545000000001 0.538987125 0.7468591041666667
v 0.5956545000000001 0.45922025 0.7468591041666667
v 0.5392513750000001 0.59539025 0.7468591041666667
v 0.5956545000000001 0.538987125 0.6599466041666666
v 0.5392513750000001 0.4028165 0.6599466041666666
v 0.40308075000000004 0.45922025 0.6599466041666666
v 0.40308075000000004 0.538987125 0.6599466041666666
v 0.5392513750000001 0.59539025 0.6599466041666666
v 0.5956545000000001 0.45922025 0.6599466041666666
v 0.4594845 0.4028165 0.6599466041666666
v 0.4594845 0.59539025 0.6599466041666666
vt 0.34375 0.09375
vt 0.28125 0.40625
vt 0.28125 0.09375
vt 0.34375 0.40625
vt 0.28125 0.09375
vt 0.34375 0.09375
vt 0.34375 0.40625
vt 0.28125 0.09375
vt 0.34375 0.09375
vt 0.34375 0.40625
vt 0.28125 0.09375
vt 0.34375 0.09375
vt 0.4378821875 0.34723250000000005
vt 0.4884053125 0.434740625
vt 0.387359375 0.434740625
vt 0.34375 0.40625
vt 0.28125 0.09375
vt 0.34375 0.09375
vt 0.34375 0.40625
vt 0.28125 0.09375
vt 0.34375 0.09375
vt 0.4378821875 0.463910625
vt 0.387359375 0.3764015625
vt 0.4884053125 0.3764015625
vt 0.5625853125 0.5302690624999999
vt 0.6557875 0.6257546875
vt 0.5625853125 0.6257546875
vt 0.5629740625 0.62538125
vt 0.656173125 0.5306484375
vt 0.6553984375 0.6261309374999999
vt 0.53125 0.4375
vt 0.625 0.3125
vt 0.625 0.4375
vt 0.625 0.3125
vt 0.53125 0.4375
vt 0.53125 0.3125
vt 0.28125 0.5
vt 0.375 1
vt 0.28125 1
vt 0.46875 0.28125
vt 0.375 0.09375
vt 0.46875 0.09375
vt 0.045518125 0.903958125
vt 0.06239625 0.34457499999999996
vt 0.2751371875 0.419435
vt 0.28125 0.5
vt 0.375 1
vt 0.28125 1
vt 0.2751371875 0.419435
vt 0.169264375 0.978816875
vt 0.045518125 0.903958125
vt 0.75 0.5
vt 0.65625 0.4375
vt 0.75 0.4375
vt 0.34375 0.09375
vt 0.34375 0.40625
vt 0.28125 0.40625
vt 0.34375 0.40625
vt 0.28125 0.40625
vt 0.28125 0.09375
vt 0.34375 0.40625
vt 0.28125 0.40625
vt 0.28125 0.09375
vt 0.34375 0.40625
vt 0.28125 0.40625
vt 0.28125 0.09375
vt 0.387359375 0.434740625
vt 0.387359375 0.3764015625
vt 0.4378821875 0.34723250000000005
vt 0.4378821875 0.34723250000000005
vt 0.4884053125 0.3764015625
vt 0.4884053125 0.434740625
vt 0.4884053125 0.434740625
vt 0.4378821875 0.463910625
vt 0.387359375 0.434740625
vt 0.34375 0.40625
vt 0.28125 0.40625
vt 0.28125 0.09375
vt 0.34375 0.40625
vt 0.28125 0.40625
vt 0.28125 0.09375
vt 0.4884053125 0.3764015625
vt 0.4884053125 0.434740625
vt 0.4378821875 0.463910625
vt 0.4378821875 0.463910625
vt 0.387359375 0.434740625
vt 0.387359375 0.3764015625
vt 0.387359375 0.3764015625
vt 0.4378821875 0.34723250000000005
vt 0.4884053125 0.3764015625
vt 0.5625853125 0.5302690624999999
vt 0.6557875 0.5302690624999999
vt 0.6557875 0.6257546875
vt 0.5629740625 0.62538125
vt 0.5629740625 0.5298925
vt 0.656173125 0.5306484375
vt 0.53125 0.4375
vt 0.53125 0.3125
vt 0.625 0.3125
vt 0.625 0.3125
vt 0.625 0.4375
vt 0.53125 0.4375
vt 0.28125 0.5
vt 0.375 0.5
vt 0.375 1
vt 0.46875 0.28125
vt 0.375 0.28125
vt 0.375 0.09375
vt 0.2751371875 0.419435
vt 0.236594375 0.903958125
vt 0.169264375 0.978816875
vt 0.169264375 0.978816875
vt 0.112848125 0.978816875
vt 0.045518125 0.903958125
vt 0.045518125 0.903958125
vt 0.0069753125 0.419435
vt 0.06239625 0.34457499999999996
vt 0.06239625 0.34457499999999996
vt 0.2197171875 0.34457499999999996
vt 0.2751371875 0.419435
vt 0.2751371875 0.419435
vt 0.169264375 0.978816875
vt 0.045518125 0.903958125
vt 0.28125 0.5
vt 0.375 0.5
vt 0.375 1
vt 0.045518125 0.903958125
vt 0.0069753125 0.419435
vt 0.06239625 0.34457499999999996
vt 0.06239625 0.34457499999999996
vt 0.2197171875 0.34457499999999996
vt 0.2751371875 0.419435
vt 0.2751371875 0.419435
vt 0.236594375 0.903958125
vt 0.169264375 0.978816875
vt 0.169264375 0.978816875
vt 0.112848125 0.978816875
vt 0.045518125 0.903958125
vt 0.045518125 0.903958125
vt 0.06239625 0.34457499999999996
vt 0.2751371875 0.419435
vt 0.75 0.5
vt 0.65625 0.5
vt 0.65625 0.4375
vt 0.437795625 0.7207346875
vt 0.52853375 0.5004378125
vt 0.52853375 0.7207346875
vt 0.437795625 0.7207346875
vt 0.5285346875 0.5004378125
vt 0.52853375 0.7207346875
vt 0.437795625 0.7207346875
vt 0.52853375 0.5004378125
vt 0.52853375 0.7207346875
vt 0.437795625 0.7207346875
vt 0.5285346875 0.5004378125
vt 0.5285346875 0.7207346875
vt 0.52853375 0.7207346875
vt 0.437795625 0.5004378125
vt 0.52853375 0.5004378125
vt 0.437795625 0.7207346875
vt 0.5285346875 0.5004378125
vt 0.52853375 0.7207346875
vt 0.625695 0.81382875
vt 0.561533125 0.9687296875
vt 0.406631875 0.9045678125
vt 0.437795625 0.7207346875
vt 0.52853375 0.5004378125
vt 0.52853375 0.7207346875
vt 0.437795625 0.7207346875
vt 0.5285346875 0.5004378125
vt 0.5285346875 0.7207346875
vt 0.665416875 0.8568959375
vt 0.690576875 0.7765790625
vt 0.690576875 0.867316875
vt 0.690576875 0.787
vt 0.665416875 0.8673181249999999
vt 0.665416875 0.7765790625
vt 0.665416875 0.8568959375
vt 0.690576875 0.7765790625
vt 0.690576875 0.867316875
vt 0.690576875 0.787
vt 0.665416875 0.8673181249999999
vt 0.665416875 0.7765790625
vt 0.665416875 0.8568959375
vt 0.690576875 0.7765790625
vt 0.690576875 0.8673181249999999
vt 0.665416875 0.787
vt 0.690576875 0.8673181249999999
vt 0.665416875 0.8568959375
vt 0.690576875 0.8568959375
vt 0.665416875 0.7765790625
vt 0.690576875 0.7870009375
vt 0.665416875 0.787
vt 0.690576875 0.8673181249999999
vt 0.665416875 0.8568959375
vt 0.135876875 0.18488000000000004
vt 0.016558125 0.13545687500000003
vt 0.0659809375 0.016138125000000003
vt 0.6876975 0.969939375
vt 0.74978 0.90472
vt 0.74978 0.969939375
vt 0.6876965625 0.90472
vt 0.74978 0.969939375
vt 0.6876965625 0.969939375
vt 0.6876975 0.90472
vt 0.74978 0.969939375
vt 0.6876975 0.969939375
vt 0.6876965625 0.90472
vt 0.74978 0.969939375
vt 0.6876965625 0.969939375
vt 0.6876975 0.90472
vt 0.74978 0.969939375
vt 0.6876975 0.969939375
vt 0.74978 0.969939375
vt 0.6876965625 0.90472
vt 0.74978 0.90472
vt 0.6876975 0.90472
vt 0.74978 0.969939375
vt 0.6876975 0.969939375
vt 0.6876965625 0.969939375
vt 0.74978 0.90472
vt 0.74978 0.969939375
vt 0.437795625 0.7207346875
vt 0.437795625 0.5004378125
vt 0.52853375 0.5004378125
vt 0.437795625 0.7207346875
vt 0.437795625 0.5004378125
vt 0.5285346875 0.5004378125
vt 0.437795625 0.7207346875
vt 0.437795625 0.5004378125
vt 0.52853375 0.5004378125
vt 0.437795625 0.7207346875
vt 0.437795625 0.5004378125
vt 0.5285346875 0.5004378125
vt 0.52853375 0.7207346875
vt 0.437795625 0.7207346875
vt 0.437795625 0.5004378125
vt 0.437795625 0.7207346875
vt 0.437795625 0.5004378125
vt 0.5285346875 0.5004378125
vt 0.406631875 0.9045678125
vt 0.406631875 0.81382875
vt 0.4707940625 0.7496678125
vt 0.4707940625 0.7496678125
vt 0.561533125 0.7496678125
vt 0.625695 0.81382875
vt 0.625695 0.81382875
vt 0.625695 0.9045678125
vt 0.561533125 0.9687296875
vt 0.561533125 0.9687296875
vt 0.4707940625 0.9687296875
vt 0.406631875 0.9045678125
vt 0.406631875 0.9045678125
vt 0.4707940625 0.7496678125
vt 0.625695 0.81382875
vt 0.437795625 0.7207346875
vt 0.437795625 0.5004378125
vt 0.52853375 0.5004378125
vt 0.437795625 0.7207346875
vt 0.437795625 0.5004378125
vt 0.5285346875 0.5004378125
vt 0.665416875 0.8568959375
vt 0.665416875 0.7870009375
vt 0.690576875 0.7765790625
vt 0.690576875 0.787
vt 0.690576875 0.8568959375
vt 0.665416875 0.8673181249999999
vt 0.665416875 0.8568959375
vt 0.665416875 0.7870009375
vt 0.690576875 0.7765790625
vt 0.690576875 0.787
vt 0.690576875 0.8568959375
vt 0.665416875 0.8673181249999999
vt 0.665416875 0.8568959375
vt 0.665416875 0.7870009375
vt 0.690576875 0.7765790625
vt 0.665416875 0.787
vt 0.690576875 0.7765790625
vt 0.690576875 0.8673181249999999
vt 0.690576875 0.8568959375
vt 0.665416875 0.8673181249999999
vt 0.665416875 0.7765790625
vt 0.665416875 0.787
vt 0.690576875 0.7765790625
vt 0.690576875 0.8673181249999999
vt 0.0659809375 0.016138125000000003
vt 0.135876875 0.016138125000000003
vt 0.1853009375 0.06556093750000003
vt 0.1853009375 0.06556093750000003
vt 0.1853009375 0.13545687500000003
vt 0.135876875 0.18488000000000004
vt 0.135876875 0.18488000000000004
vt 0.0659809375 0.18488000000000004
vt 0.016558125 0.13545687500000003
vt 0.016558125 0.13545687500000003
vt 0.016558125 0.06556093750000003
vt 0.0659809375 0.016138125000000003
vt 0.0659809375 0.016138125000000003
vt 0.1853009375 0.06556093750000003
vt 0.135876875 0.18488000000000004
vt 0.6876975 0.969939375
vt 0.6876975 0.90472
vt 0.74978 0.90472
vt 0.6876965625 0.90472
vt 0.74978 0.90472
vt 0.74978 0.969939375
vt 0.6876975 0.90472
vt 0.74978 0.90472
vt 0.74978 0.969939375
vt 0.6876965625 0.90472
vt 0.74978 0.90472
vt 0.74978 0.969939375
vt 0.6876975 0.90472
vt 0.74978 0.90472
vt 0.74978 0.969939375
vt 0.74978 0.969939375
vt 0.6876965625 0.969939375
vt 0.6876965625 0.90472
vt 0.6876975 0.90472
vt 0.74978 0.90472
vt 0.74978 0.969939375
vt 0.6876965625 0.969939375
vt 0.6876965625 0.90472
vt 0.74978 0.90472
vn -0.5000049679582345 0.8660225355134156 6.123294835678268e-17
vn -1 0 1.2246467991473532e-16
vn -0.4999979273506417 -0.8660266004257967 6.123208613102742e-17
vn 0.4999979273506421 -0.8660266004257966 -6.123208613102747e-17
vn -1.2246467991473532e-16 0 -1
vn 1 0 -1.2246467991473532e-16
vn 0.5000049679582348 0.8660225355134153 -6.123294835678271e-17
vn 1.2246467991473532e-16 0 1
vn 0.5950088709765579 -0.8037191321968155 -7.28675709305722e-17
vn 0.5950088709765582 0.8037191321968153 -7.286757093057224e-17
vn -0.6687275908657131 -0.7435075044778899 8.189551036552164e-17
vn -0.6687275908657131 0.74350750447789 8.189551036552164e-17
vn -0.07929671183733299 -0.9968510578274906 9.711046433449988e-18
vn 1 0 -1.2246467991473532e-16
vn -1.2246467991473532e-16 0 -1
vn -0.07929671183733307 0.9968510578274906 9.711046433449997e-18
vn 1.2246467991473532e-16 0 1
vn -1 0 1.2246467991473532e-16
vn -0.5000049679582345 0.8660225355134156 6.123294835678268e-17
vn -1 0 1.2246467991473532e-16
vn -0.4999979273506417 -0.8660266004257967 6.123208613102742e-17
vn 0.4999979273506421 -0.8660266004257966 -6.123208613102747e-17
vn -1.2246467991473532e-16 0 -1
vn -1.2246467991473532e-16 0 -1
vn -1.2246467991473532e-16 0 -1
vn 1 0 -1.2246467991473532e-16
vn 0.5000049679582348 0.8660225355134153 -6.123294835678271e-17
vn 1.2246467991473532e-16 0 1
vn 1.2246467991473532e-16 0 1
vn 1.2246467991473532e-16 0 1
vn 0.5950088709765579 -0.8037191321968155 -7.28675709305722e-17
vn 0.5950088709765582 0.8037191321968153 -7.286757093057224e-17
vn -0.6687275908657131 -0.7435075044778899 8.189551036552164e-17
vn -0.6687275908657131 0.74350750447789 8.189551036552164e-17
vn -0.07929671183733299 -0.9968510578274906 9.711046433449988e-18
vn 1 0 -1.2246467991473532e-16
vn -1.2246467991473532e-16 0 -1
vn -1.2246467991473532e-16 0 -1
vn -1.2246467991473532e-16 0 -1
vn -1.2246467991473532e-16 0 -1
vn -1.2246467991473532e-16 0 -1
vn -0.07929671183733307 0.9968510578274906 9.711046433449997e-18
vn 1.2246467991473532e-16 0 1
vn 1.2246467991473532e-16 0 1
vn 1.2246467991473532e-16 0 1
vn 1.2246467991473532e-16 0 1
vn 1.2246467991473532e-16 0 1
vn -1 0 1.2246467991473532e-16
vn -0.7071067811865478 0.7071067811865474 8.659560562354937e-17
vn -1 0 1.2246467991473532e-16
vn -0.7071067811865478 -0.7071067811865474 8.659560562354937e-17
vn 0 -1 0
vn 0.7071067811865475 -0.7071067811865476 -8.659560562354932e-17
vn 1 0 -1.2246467991473532e-16
vn 1.2246467991473532e-16 0 1
vn 0.7071067811865475 0.7071067811865476 -8.659560562354932e-17
vn 0 1 0
vn -1.2246467991473532e-16 0 -1
vn -1.2246467991473532e-16 0 -1
vn -1.2246467991473532e-16 0 -1
vn -1.2246467991473532e-16 0 -1
vn -1.2246467991473532e-16 0 -1
vn -1.2246467991473532e-16 0 -1
vn -1.2246467991473532e-16 0 -1
vn -1.2246467991473532e-16 0 -1
vn -1.2246467991473532e-16 0 -1
vn -0.7071028634912608 0.7071106988601285 8.659512584425004e-17
vn 0 1 0
vn 0.7071067811865475 0.7071067811865476 -8.659560562354932e-17
vn 1 0 -1.2246467991473532e-16
vn 0.7071106988601287 -0.7071028634912607 -8.659608540019046e-17
vn 0 -1 0
vn -0.7071067811865478 -0.7071067811865472 8.659560562354937e-17
vn -1 0 1.2246467991473532e-16
vn -0.7071067811865478 0.7071067811865474 8.659560562354937e-17
vn -1 0 1.2246467991473532e-16
vn -0.7071067811865478 -0.7071067811865474 8.659560562354937e-17
vn 0 -1 0
vn 0.7071067811865475 -0.7071067811865476 -8.659560562354932e-17
vn 1 0 -1.2246467991473532e-16
vn 1.2246467991473532e-16 0 1
vn 1.2246467991473532e-16 0 1
vn 1.2246467991473532e-16 0 1
vn 1.2246467991473532e-16 0 1
vn 1.2246467991473532e-16 0 1
vn 0.7071067811865475 0.7071067811865476 -8.659560562354932e-17
vn 0 1 0
vn -1.2246467991473532e-16 0 -1
vn -1.2246467991473532e-16 0 -1
vn -1.2246467991473532e-16 0 -1
vn -1.2246467991473532e-16 0 -1
vn -1.2246467991473532e-16 0 -1
vn -1.2246467991473532e-16 0 -1
vn -1.2246467991473532e-16 0 -1
vn -1.2246467991473532e-16 0 -1
vn -1.2246467991473532e-16 0 -1
vn -1.2246467991473532e-16 0 -1
vn -1.2246467991473532e-16 0 -1
vn -1.2246467991473532e-16 0 -1
vn -1.2246467991473532e-16 0 -1
vn -0.7071028634912608 0.7071106988601285 8.659512584425004e-17
vn 0 1 0
vn 0.7071067811865475 0.7071067811865476 -8.659560562354932e-17
vn 1 0 -1.2246467991473532e-16
vn 0.7071106988601287 -0.7071028634912607 -8.659608540019046e-17
vn 0 -1 0
vn -0.7071067811865478 -0.7071067811865472 8.659560562354937e-17
vn -1 0 1.2246467991473532e-16
usemtl m_28df7440-d5de-580e-1352-025895eb12d2
f 1/1/1 2/2/1 3/3/1
f 2/4/2 4/5/2 3/6/2
f 5/7/3 6/8/3 4/9/3
f 7/10/4 8/11/4 6/12/4
f 9/13/5 10/14/5 5/15/5
f 10/16/6 11/17/6 8/18/6
f 12/19/7 1/20/7 11/21/7
f 3/22/8 6/23/8 11/24/8
f 13/25/9 14/26/9 15/27/9
f 16/28/10 17/29/10 18/30/10
f 19/31/11 20/32/11 21/33/11
f 22/34/12 23/35/12 24/36/12
f 19/37/13 25/38/13 13/39/13
f 17/40/14 15/41/14 14/42/14
f 22/43/15 17/44/15 25/45/15
f 16/46/16 22/47/16 24/48/16
f 16/49/17 23/50/17 19/51/17
f 23/52/18 20/53/18 26/54/18
f 1/55/19 9/56/19 2/57/19
f 2/58/20 5/59/20 4/60/20
f 5/61/21 7/62/21 6/63/21
f 7/64/22 10/65/22 8/66/22
f 5/67/23 2/68/23 9/69/23
f 9/70/24 12/71/24 10/72/24
f 10/73/25 7/74/25 5/75/25
f 10/76/26 12/77/26 11/78/26
f 12/79/27 9/80/27 1/81/27
f 11/82/28 1/83/28 3/84/28
f 3/85/29 4/86/29 6/87/29
f 6/88/30 8/89/30 11/90/30
f 13/91/31 25/92/31 14/93/31
f 16/94/32 27/95/32 17/96/32
f 19/97/33 26/98/33 20/99/33
f 22/100/34 28/101/34 23/102/34
f 19/103/35 21/104/35 25/105/35
f 17/106/36 27/107/36 15/108/36
f 25/109/37 21/110/37 20/111/37
f 20/112/38 28/113/38 22/114/38
f 22/115/39 18/116/39 17/117/39
f 17/118/40 14/119/40 25/120/40
f 25/121/41 20/122/41 22/123/41
f 16/124/42 18/125/42 22/126/42
f 19/127/43 13/128/43 15/129/43
f 15/130/44 27/131/44 16/132/44
f 16/133/45 24/134/45 23/135/45
f 23/136/46 26/137/46 19/138/46
f 19/139/47 15/140/47 16/141/47
f 23/142/48 28/143/48 20/144/48
f 29/145/49 30/146/49 31/147/49
f 32/148/50 33/149/50 29/150/50
f 34/151/51 35/152/51 32/153/51
f 36/154/52 37/155/52 34/156/52
f 36/157/53 38/158/53 39/159/53
f 40/160/54 38/161/54 41/162/54
f 37/163/55 38/164/55 42/165/55
f 43/166/56 44/167/56 40/168/56
f 31/169/57 42/170/57 43/171/57
f 45/172/58 29/173/58 31/174/58
f 46/175/59 32/176/59 29/177/59
f 47/178/60 34/179/60 32/180/60
f 48/181/61 36/182/61 34/183/61
f 49/184/62 41/185/62 36/186/62
f 50/187/63 41/188/63 51/189/63
f 52/190/64 40/191/64 50/192/64
f 45/193/65 43/194/65 52/195/65
f 53/196/66 54/197/66 55/198/66
f 45/199/67 56/200/67 46/201/67
f 57/202/68 45/203/68 52/204/68
f 53/205/69 52/206/69 50/207/69
f 58/208/70 50/209/70 51/210/70
f 54/211/71 51/212/71 49/213/71
f 59/214/72 49/215/72 48/216/72
f 55/217/73 48/218/73 47/219/73
f 46/220/74 55/221/74 47/222/74
f 29/223/75 33/224/75 30/225/75
f 32/226/76 35/227/76 33/228/76
f 34/229/77 37/230/77 35/231/77
f 36/232/78 39/233/78 37/234/78
f 36/235/79 41/236/79 38/237/79
f 40/238/80 44/239/80 38/240/80
f 42/241/81 30/242/81 33/243/81
f 33/244/82 35/245/82 37/246/82
f 37/247/83 39/248/83 38/249/83
f 38/250/84 44/251/84 42/252/84
f 42/253/85 33/254/85 37/255/85
f 43/256/86 42/257/86 44/258/86
f 31/259/87 30/260/87 42/261/87
f 45/262/88 46/263/88 29/264/88
f 46/265/89 47/266/89 32/267/89
f 47/268/90 48/269/90 34/270/90
f 48/271/91 49/272/91 36/273/91
f 49/274/92 51/275/92 41/276/92
f 50/277/93 40/278/93 41/279/93
f 52/280/94 43/281/94 40/282/94
f 45/283/95 31/284/95 43/285/95
f 55/286/96 56/287/96 60/288/96
f 60/289/97 57/290/97 53/291/97
f 53/292/98 58/293/98 54/294/98
f 54/295/99 59/296/99 55/297/99
f 55/298/100 60/299/100 53/300/100
f 45/301/101 60/302/101 56/303/101
f 57/304/102 60/305/102 45/306/102
f 53/307/103 57/308/103 52/309/103
f 58/310/104 53/311/104 50/312/104
f 54/313/105 58/314/105 51/315/105
f 59/316/106 54/317/106 49/318/106
f 55/319/107 59/320/107 48/321/107
f 46/322/108 56/323/108 55/324/108