# Made in Blockbench 5.1.4
mtllib jernova2.mtl

o 2
v 0 0.1875 0
v 0.10048125 0.1875 0.375
v 0.10048125 0.4375 0.375
v 0.27451875 0.1875 0.27451875
v 0.27451875 0.4375 0.27451875
v 0.375 0.1875 0.10048125
v 0.375 0.4375 0.10048125
v 0.375 0.1875 -0.10048125
v 0.375 0.4375 -0.10048125
v 0.27451875 0.1875 -0.27451875
v 0.27451875 0.4375 -0.27451875
v 0.10048125 0.1875 -0.375
v 0.10048125 0.4375 -0.375
v -0.10048125 0.1875 -0.375
v -0.10048125 0.4375 -0.375
v -0.27451875 0.1875 -0.27451875
v -0.27451875 0.4375 -0.27451875
v -0.375 0.1875 -0.10048125
v -0.375 0.4375 -0.10048125
v -0.375 0.1875 0.10048125
v -0.375 0.4375 0.10048125
v -0.27451875 0.1875 0.27451875
v -0.27451875 0.4375 0.27451875
v -0.10048125 0.1875 0.375
v -0.10048125 0.4375 0.375
v 0 0.4375 0
v 0.40625 0.1875 0.40625
v 0.40625 0.1875 -0.40625
v -0.40625 0.1875 0.40625
v -0.40625 0.1875 -0.40625
v 0.375 0 0.5
v 0.5 0 -0.375
v -0.5 0 0.375
v -0.375 0 -0.5
v -0.5 0.125 0.375
v -0.5 0 -0.375
v -0.5 0.125 -0.375
v 0.5 0 0.375
v 0.5 0.125 0.375
v 0.5 0.125 -0.375
v 0.375 0 -0.5
v 0.375 0.125 -0.5
v -0.375 0.125 -0.5
v 0.375 0.125 0.5
v -0.375 0 0.5
v -0.375 0.125 0.5
vt 0.1623796875 0.6936296875
vt 0.1188703125 0.71875
vt 0.09375 0.625
vt 0.2907453125 0.421875
vt 0.3409859375 0.421875
vt 0.3409859375 0.484375
vt 0.2907453125 0.484375
vt 0.1875 0.6501203125
vt 0.1623796875 0.6936296875
vt 0.09375 0.625
vt 0.5027640625 0.75
vt 0.5530046875 0.75
vt 0.5530046875 0.8125
vt 0.5027640625 0.8125
vt 0.1875 0.5998796875
vt 0.1875 0.6501203125
vt 0.09375 0.625
vt 0.5530046875 0.75
vt 0.6032453125 0.75
vt 0.6032453125 0.8125
vt 0.5530046875 0.8125
vt 0.1623796875 0.5563703125
vt 0.1875 0.5998796875
vt 0.09375 0.625
vt 0.6032453125 0.75
vt 0.6534859375 0.75
vt 0.6534859375 0.8125
vt 0.6032453125 0.8125
vt 0.1188703125 0.53125
vt 0.1623796875 0.5563703125
vt 0.09375 0.625
vt 0.5183890625 0.59375
vt 0.5686296875 0.59375
vt 0.5686296875 0.65625
vt 0.5183890625 0.65625
vt 0.0686296875 0.53125
vt 0.1188703125 0.53125
vt 0.09375 0.625
vt 0.5686296875 0.59375
vt 0.6188703125 0.59375
vt 0.6188703125 0.65625
vt 0.5686296875 0.65625
vt 0.0251203125 0.5563703125
vt 0.0686296875 0.53125
vt 0.09375 0.625
vt 0.6188703125 0.59375
vt 0.6691109375 0.59375
vt 0.6691109375 0.65625
vt 0.6188703125 0.65625
vt 0 0.5998796875
vt 0.0251203125 0.5563703125
vt 0.09375 0.625
vt 0.5183890625 0.671875
vt 0.5686296875 0.671875
vt 0.5686296875 0.734375
vt 0.5183890625 0.734375
vt 0 0.6501203125
vt 0 0.5998796875
vt 0.09375 0.625
vt 0.5686296875 0.671875
vt 0.6188703125 0.671875
vt 0.6188703125 0.734375
vt 0.5686296875 0.734375
vt 0.0251203125 0.6936296875
vt 0 0.6501203125
vt 0.09375 0.625
vt 0.6188703125 0.671875
vt 0.6691109375 0.671875
vt 0.6691109375 0.734375
vt 0.6188703125 0.734375
vt 0.0686296875 0.71875
vt 0.0251203125 0.6936296875
vt 0.09375 0.625
vt 0.1902640625 0.421875
vt 0.2405046875 0.421875
vt 0.2405046875 0.484375
vt 0.1902640625 0.484375
vt 0.1188703125 0.71875
vt 0.0686296875 0.71875
vt 0.09375 0.625
vt 0.2405046875 0.421875
vt 0.2907453125 0.421875
vt 0.2907453125 0.484375
vt 0.2405046875 0.484375
vt 0.9001203125 0.453125
vt 0.9436296875 0.4782453125
vt 0.875 0.546875
vt 0.9436296875 0.6155046875
vt 0.9001203125 0.640625
vt 0.875 0.546875
vt 0.9001203125 0.640625
vt 0.8498796875 0.640625
vt 0.875 0.546875
vt 0.8063703125 0.4782453125
vt 0.8498796875 0.453125
vt 0.875 0.546875
vt 0.9436296875 0.4782453125
vt 0.96875 0.5217546875
vt 0.875 0.546875
vt 0.96875 0.5217546875
vt 0.96875 0.5719953125
vt 0.875 0.546875
vt 0.96875 0.5719953125
vt 0.9436296875 0.6155046875
vt 0.875 0.546875
vt 0.8498796875 0.640625
vt 0.8063703125 0.6155046875
vt 0.875 0.546875
vt 0.8063703125 0.6155046875
vt 0.78125 0.5719953125
vt 0.875 0.546875
vt 0.78125 0.5719953125
vt 0.78125 0.5217546875
vt 0.875 0.546875
vt 0.78125 0.5217546875
vt 0.8063703125 0.4782453125
vt 0.875 0.546875
vt 0.8498796875 0.453125
vt 0.9001203125 0.453125
vt 0.875 0.546875
vt 0.46875 0.796875
vt 0.28125 0.796875
vt 0.28125 0.765625
vt 0.46875 0.765625
vt 0.375 0.375
vt 0.375 0.40625
vt 0.1875 0.40625
vt 0.1875 0.375
vt 0.2359375 0.76714375
vt 0.234375 0.97183125
vt 0.03125 0.97183125
vt 0.03125 0.76714375
vt 0.28125 0.5
vt 0.5 0.53125
vt 0.46875 0.75
vt 0.25 0.71875
vt 0.359375 0.328125
vt 0.359375 0.359375
vt 0.171875 0.359375
vt 0.171875 0.328125
vt 0.5625 0.34375
vt 0.375 0.34375
vt 0.375 0.3125
vt 0.5625 0.3125
vt 0.234375 0.97183125
vt 0.2359375 0.76558125
vt 0.26254375 0.77651875
vt 0.26254375 0.96401875
vt 0.00308125 0.77651875
vt 0.03125 0.76714375
vt 0.03125 0.97183125
vt 0.00308125 0.96401875
vt 0.2265625 0.7342875
vt 0.234375 0.7624562500000001
vt 0.03125 0.7624562500000001
vt 0.0390625 0.7342875
vt 0.03125 0.97183125
vt 0.234375 0.97183125
vt 0.2265625 1
vt 0.0390625 1
vt 0.46875 0.75
vt 0.5 0.53125
vt 0.5 0.71875
vt 0.28125 0.5
vt 0.25 0.71875
vt 0.25 0.53125
vt 0.25 0.71875
vt 0.46875 0.75
vt 0.28125 0.75
vt 0.578125 0.296875
vt 0.625 0.296875
vt 0.625 0.328125
vt 0.578125 0.328125
vt 0.578125 0.328125
vt 0.578125 0.296875
vt 0.625 0.296875
vt 0.625 0.328125
vt 0.578125 0.328125
vt 0.578125 0.296875
vt 0.625 0.296875
vt 0.625 0.328125
vt 0.578125 0.296875
vt 0.625 0.296875
vt 0.625 0.328125
vt 0.578125 0.328125
vt 0.6 0.34375
vt 0.578125 0.328125
vt 0.625 0.328125
vt 0.6 0.34375
vt 0.578125 0.328125
vt 0.625 0.328125
vt 0.6 0.34375
vt 0.578125 0.328125
vt 0.625 0.328125
vt 0.6 0.34375
vt 0.578125 0.328125
vt 0.625 0.328125
vt 0.5 0.53125
vt 0.28125 0.5
vt 0.46875 0.5
vn 0 -1 0
vn 0.500002435262396 0 0.8660239977804736
vn 0 -1 0
vn 0.8660239977804736 0 0.500002435262396
vn 0 -1 0
vn 1 0 0
vn 0 -1 0
vn 0.8660239977804736 0 -0.500002435262396
vn 0 -1 0
vn 0.500002435262396 0 -0.8660239977804736
vn 0 -1 0
vn 0 0 -1
vn 0 -1 0
vn -0.500002435262396 0 -0.8660239977804736
vn 0 -1 0
vn -0.8660239977804736 0 -0.500002435262396
vn 0 -1 0
vn -1 0 0
vn 0 -1 0
vn -0.8660239977804736 0 0.500002435262396
vn 0 -1 0
vn -0.500002435262396 0 0.8660239977804736
vn 0 -1 0
vn 0 0 1
vn 0 1 0
vn 0 1 0
vn 0 1 0
vn 0 1 0
vn 0 1 0
vn 0 1 0
vn 0 1 0
vn 0 1 0
vn 0 1 0
vn 0 1 0
vn 0 1 0
vn 0 1 0
vn 1 0 0
vn -1 0 0
vn 0 1 0
vn 0 -1 0
vn 0 0 1
vn 0 0 -1
vn 0.5547001962252293 0.8320502943378438 0
vn -0.5547001962252293 0.8320502943378438 0
vn 0 0.8320502943378438 0.5547001962252293
vn 0 0.8320502943378438 -0.5547001962252293
vn 0 -1 0
vn 0 -1 0
vn 0 -1 0
vn 0.7071067811865476 0 -0.7071067811865476
vn 0.7071067811865476 0 0.7071067811865476
vn -0.7071067811865476 0 -0.7071067811865476
vn -0.7071067811865476 0 0.7071067811865476
vn 0.5773502691896258 0.5773502691896258 0.5773502691896258
vn -0.5773502691896258 0.5773502691896258 0.5773502691896258
vn 0.5773502691896258 0.5773502691896258 -0.5773502691896258
vn -0.5773502691896258 0.5773502691896258 -0.5773502691896258
vn 0 -1 0
usemtl m_e43ee67e-7f85-4ec1-73d9-b3a1dbc254f4
f 4/1/1 2/2/1 1/3/1
f 2/4/2 4/5/2 5/6/2 3/7/2
f 6/8/3 4/9/3 1/10/3
f 4/11/4 6/12/4 7/13/4 5/14/4
f 8/15/5 6/16/5 1/17/5
f 6/18/6 8/19/6 9/20/6 7/21/6
f 10/22/7 8/23/7 1/24/7
f 8/25/8 10/26/8 11/27/8 9/28/8
f 12/29/9 10/30/9 1/31/9
f 10/32/10 12/33/10 13/34/10 11/35/10
f 14/36/11 12/37/11 1/38/11
f 12/39/12 14/40/12 15/41/12 13/42/12
f 16/43/13 14/44/13 1/45/13
f 14/46/14 16/47/14 17/48/14 15/49/14
f 18/50/15 16/51/15 1/52/15
f 16/53/16 18/54/16 19/55/16 17/56/16
f 20/57/17 18/58/17 1/59/17
f 18/60/18 20/61/18 21/62/18 19/63/18
f 22/64/19 20/65/19 1/66/19
f 20/67/20 22/68/20 23/69/20 21/70/20
f 24/71/21 22/72/21 1/73/21
f 22/74/22 24/75/22 25/76/22 23/77/22
f 2/78/23 24/79/23 1/80/23
f 24/81/24 2/82/24 3/83/24 25/84/24
f 3/85/25 5/86/25 26/87/25
f 11/88/26 13/89/26 26/90/26
f 13/91/27 15/92/27 26/93/27
f 23/94/28 25/95/28 26/96/28
f 5/97/29 7/98/29 26/99/29
f 7/100/30 9/101/30 26/102/30
f 9/103/31 11/104/31 26/105/31
f 15/106/32 17/107/32 26/108/32
f 17/109/33 19/110/33 26/111/33
f 19/112/34 21/113/34 26/114/34
f 21/115/35 23/116/35 26/117/35
f 25/118/36 3/119/36 26/120/36
f 40/121/37 39/122/37 38/123/37 32/124/37
f 33/125/38 35/126/38 37/127/38 36/128/38
f 27/129/39 28/130/39 30/131/39 29/132/39
f 34/133/40 32/134/40 31/135/40 33/136/40
f 31/137/41 44/138/41 46/139/41 45/140/41
f 43/141/42 42/142/42 41/143/42 34/144/42
f 28/145/43 27/146/43 39/147/43 40/148/43
f 35/149/44 29/150/44 30/151/44 37/152/44
f 44/153/45 27/154/45 29/155/45 46/156/45
f 30/157/46 28/158/46 42/159/46 43/160/46
f 31/161/47 32/162/47 38/163/47
f 34/164/48 33/165/48 36/166/48
f 33/167/49 31/168/49 45/169/49
f 32/170/50 41/171/50 42/172/50 40/173/50
f 44/174/51 31/175/51 38/176/51 39/177/51
f 43/178/52 34/179/52 36/180/52 37/181/52
f 33/182/53 45/183/53 46/184/53 35/185/53
f 27/186/54 44/187/54 39/188/54
f 29/189/55 35/190/55 46/191/55
f 28/192/56 40/193/56 42/194/56
f 30/195/57 43/196/57 37/197/57
f 32/198/58 34/199/58 41/200/58