# Made in Blockbench 5.1.4
mtllib low_pressure_steam_condenser.mtl

o mesh
v 0.421875 0.08124999999999999 0.010937499999999958
v -0.421875 0.08124999999999999 0.010937500000000145
v 0.421875 0.91875 0.010937499999999854
v -0.421875 0.91875 0.010937500000000041
v 0.421875 0.08124999999999999 -0.010937500000000041
v -0.421875 0.08124999999999999 -0.010937499999999854
v 0.421875 0.91875 -0.010937500000000145
v -0.421875 0.91875 -0.010937499999999958
v 0.4218749999999999 0.48906249999999996 -0.4187500000000001
v -0.4218750000000001 0.48906249999999996 -0.4187499999999999
v 0.4218750000000001 0.4890625 0.4187499999999999
v -0.4218749999999999 0.4890625 0.4187500000000001
v 0.4218749999999999 0.5109375 -0.4187500000000001
v -0.4218750000000001 0.5109375 -0.4187499999999999
v 0.4218750000000001 0.5109374999999999 0.4187499999999999
v -0.4218749999999999 0.5109374999999999 0.4187500000000001
v 0.42187499999999994 0.1961650549589053 -0.288366984202639
v -0.42187500000000006 0.1961650549589053 -0.2883669842026388
v 0.42187500000000006 0.7883669842026388 0.3038349450410945
v -0.42187499999999994 0.7883669842026388 0.3038349450410947
v 0.42187499999999994 0.211633015797361 -0.3038349450410947
v -0.42187500000000006 0.211633015797361 -0.3038349450410945
v 0.42187500000000006 0.8038349450410947 0.2883669842026388
v -0.42187499999999994 0.8038349450410947 0.288366984202639
v 0.42187499999999994 0.7883669842026388 -0.3038349450410949
v -0.42187500000000006 0.7883669842026388 -0.30383494504109465
v 0.42187500000000006 0.19616505495890552 0.28836698420263895
v -0.42187499999999994 0.19616505495890552 0.2883669842026392
v 0.42187499999999994 0.8038349450410947 -0.2883669842026392
v -0.42187500000000006 0.8038349450410947 -0.28836698420263895
v 0.42187500000000006 0.2116330157973612 0.30383494504109465
v -0.42187499999999994 0.2116330157973612 0.3038349450410949
v 0.43749999999999994 0.2193669962165889 -0.24969708210649966
v -0.43750000000000006 0.2193669962165889 -0.2496970821064995
v 0.43750000000000006 0.7496970821064995 0.28063300378341083
v -0.43749999999999994 0.7496970821064995 0.28063300378341105
v 0.43749999999999994 0.25030291789350034 -0.2806330037834111
v -0.43750000000000006 0.25030291789350034 -0.2806330037834109
v 0.43750000000000006 0.780633003783411 0.2496970821064995
v -0.43749999999999994 0.780633003783411 0.24969708210649966
v 0.43749999999999994 0.7496970821064995 -0.2806330037834113
v -0.43750000000000006 0.7496970821064995 -0.28063300378341105
v 0.43750000000000006 0.219366996216589 0.2496970821064996
v -0.43749999999999994 0.219366996216589 0.24969708210649977
v 0.43749999999999994 0.780633003783411 -0.24969708210649977
v -0.43750000000000006 0.780633003783411 -0.2496970821064996
v 0.43750000000000006 0.25030291789350056 0.280633003783411
v -0.43749999999999994 0.25030291789350056 0.2806330037834112
v 0.4375000000000001 0.5218750000000001 0.3749999999999999
v -0.4374999999999999 0.5218750000000001 0.3750000000000001
v 0.4374999999999999 0.5218749999999999 -0.3750000000000001
v -0.4375000000000001 0.5218749999999999 -0.3749999999999999
v 0.4375000000000001 0.4781250000000002 0.3749999999999999
v -0.4374999999999999 0.4781250000000002 0.3750000000000001
v 0.4374999999999999 0.4781249999999998 -0.3750000000000001
v -0.4375000000000001 0.4781249999999998 -0.3749999999999999
v 0.4375 0.875 -0.021875000000000186
v -0.4375 0.875 -0.02187499999999999
v 0.4375 0.125 -0.021875000000000002
v -0.4375 0.125 -0.021874999999999808
v 0.4375 0.875 0.02187499999999981
v -0.4375 0.875 0.021875000000000006
v 0.4375 0.125 0.021874999999999995
v -0.4375 0.125 0.02187500000000019
v -0.5 0.4999999999999999 1.665334536937735e-16
v -6.162344727856579e-17 0.49999984781479057 -0.18772733420103432
v -0.5 0.49999984781479045 -0.18772733420103416
v -7.761347973565671e-17 0.6327433786388181 -0.13274316341643116
v -0.5 0.6327433786388181 -0.132743163416431
v -4.813861025026111e-17 0.6877273342010344 -1.5218520948036557e-7
v -0.5 0.6877273342010342 -1.521852093138321e-7
v 9.535345544002418e-18 0.6327431634164311 0.1327433786388182
v -0.49999999999999994 0.632743163416431 0.13274337863881835
v 6.162344727856579e-17 0.5000001521852094 0.18772733420103432
v -0.49999999999999994 0.5000001521852093 0.1877273342010345
v 7.761347973565671e-17 0.36725662136118187 0.13274316341643114
v -0.4999999999999999 0.36725662136118176 0.1327431634164313
v 4.813861025026111e-17 0.3122726657989657 1.5218520948036554e-7
v -0.49999999999999994 0.31227266579896557 1.52185209646899e-7
v -9.535345544002425e-18 0.3672568365835689 -0.13274337863881822
v -0.5 0.3672568365835688 -0.13274337863881805
v 0.5 0.5000000000000001 -1.665334536937735e-16
v -6.162344727856579e-17 0.49999984781479057 -0.18772733420103432
v 0.49999999999999994 0.4999998478147907 -0.1877273342010345
v -7.761347973565671e-17 0.6327433786388181 -0.13274316341643116
v 0.4999999999999999 0.6327433786388184 -0.13274316341643133
v -4.813861025026111e-17 0.6877273342010344 -1.5218520948036557e-7
v 0.49999999999999994 0.6877273342010344 -1.5218520964689902e-7
v 9.535345544002418e-18 0.6327431634164311 0.1327433786388182
v 0.5 0.6327431634164312 0.13274337863881802
v 6.162344727856579e-17 0.5000001521852094 0.18772733420103432
v 0.5 0.5000001521852095 0.18772733420103416
v 7.761347973565671e-17 0.36725662136118187 0.13274316341643114
v 0.5 0.367256621361182 0.13274316341643097
v 4.813861025026111e-17 0.3122726657989657 1.5218520948036554e-7
v 0.5 0.3122726657989658 1.5218520931383209e-7
v -9.535345544002425e-18 0.3672568365835689 -0.13274337863881822
v 0.49999999999999994 0.367256836583569 -0.13274337863881838
vt 0.34375 1
vt 0.234375 1
vt 0.234375 0.8984375
vt 0.34375 0.8984375
vt 0.34375 0.7890625
vt 0.34375 0.890625
vt 0.234375 0.890625
vt 0.234375 0.7890625
vt 0.234375 0.3984375
vt 0.2421875 0.3984375
vt 0.2421875 0.5078125
vt 0.234375 0.5078125
vt 0.2578125 0.3984375
vt 0.2578125 0.5078125
vt 0.25 0.5078125
vt 0.25 0.3984375
vt 0.0078125 0.3984375
vt 0.0078125 0.5
vt 0 0.5
vt 0 0.3984375
vt 0.5078125 1
vt 0.5 1
vt 0.5 0.8984375
vt 0.5078125 0.8984375
vt 0.109375 0.78125
vt 0 0.78125
vt 0 0.6796875
vt 0.109375 0.6796875
vt 0.2265625 0.6796875
vt 0.2265625 0.78125
vt 0.1171875 0.78125
vt 0.1171875 0.6796875
vt 0.484375 0.7734375
vt 0.4921875 0.7734375
vt 0.4921875 0.8828125
vt 0.484375 0.8828125
vt 0.4921875 0.65625
vt 0.4921875 0.765625
vt 0.484375 0.765625
vt 0.484375 0.65625
vt 0.5 0.546875
vt 0.5 0.6484375
vt 0.4921875 0.6484375
vt 0.4921875 0.546875
vt 0.5 0.5390625
vt 0.4921875 0.5390625
vt 0.4921875 0.4375
vt 0.5 0.4375
vt 0.2265625 1
vt 0.1171875 1
vt 0.1171875 0.8984375
vt 0.2265625 0.8984375
vt 0.2265625 0.7890625
vt 0.2265625 0.890625
vt 0.1171875 0.890625
vt 0.1171875 0.7890625
vt 0.4765625 0.421875
vt 0.484375 0.421875
vt 0.484375 0.53125
vt 0.4765625 0.53125
vt 0.4921875 0.890625
vt 0.4921875 1
vt 0.484375 1
vt 0.484375 0.890625
vt 0.3046875 0.40625
vt 0.3046875 0.5078125
vt 0.296875 0.5078125
vt 0.296875 0.40625
vt 0.3203125 0.5078125
vt 0.3125 0.5078125
vt 0.3125 0.40625
vt 0.3203125 0.40625
vt 0.109375 1
vt 0 1
vt 0 0.8984375
vt 0.109375 0.8984375
vt 0.109375 0.7890625
vt 0.109375 0.890625
vt 0 0.890625
vt 0 0.7890625
vt 0.3828125 0.421875
vt 0.390625 0.421875
vt 0.390625 0.53125
vt 0.3828125 0.53125
vt 0.484375 0.5390625
vt 0.484375 0.6484375
vt 0.4765625 0.6484375
vt 0.4765625 0.5390625
vt 0.2734375 0.40625
vt 0.2734375 0.5078125
vt 0.265625 0.5078125
vt 0.265625 0.40625
vt 0.2890625 0.5078125
vt 0.28125 0.5078125
vt 0.28125 0.40625
vt 0.2890625 0.40625
vt 0.4609375 0.796875
vt 0.3515625 0.796875
vt 0.3515625 0.703125
vt 0.4609375 0.703125
vt 0.4609375 0.6015625
vt 0.4609375 0.6953125
vt 0.3515625 0.6953125
vt 0.3515625 0.6015625
vt 0.3515625 0.421875
vt 0.359375 0.421875
vt 0.359375 0.53125
vt 0.3515625 0.53125
vt 0.375 0.421875
vt 0.375 0.53125
vt 0.3671875 0.53125
vt 0.3671875 0.421875
vt 0.1171875 0.40625
vt 0.1171875 0.5
vt 0.109375 0.5
vt 0.109375 0.40625
vt 0.5078125 0.890625
vt 0.5 0.890625
vt 0.5 0.796875
vt 0.5078125 0.796875
vt 0.4609375 1
vt 0.3515625 1
vt 0.3515625 0.90625
vt 0.4609375 0.90625
vt 0.4609375 0.8046875
vt 0.4609375 0.8984375
vt 0.3515625 0.8984375
vt 0.3515625 0.8046875
vt 0.46875 0.7734375
vt 0.4765625 0.7734375
vt 0.4765625 0.8828125
vt 0.46875 0.8828125
vt 0.4765625 0.65625
vt 0.4765625 0.765625
vt 0.46875 0.765625
vt 0.46875 0.65625
vt 0.0859375 0.40625
vt 0.0859375 0.5
vt 0.078125 0.5
vt 0.078125 0.40625
vt 0.1015625 0.5
vt 0.09375 0.5
vt 0.09375 0.40625
vt 0.1015625 0.40625
vt 0.109375 0.671875
vt 0 0.671875
vt 0 0.578125
vt 0.109375 0.578125
vt 0.2265625 0.578125
vt 0.2265625 0.671875
vt 0.1171875 0.671875
vt 0.1171875 0.578125
vt 0.4296875 0.4296875
vt 0.4375 0.4296875
vt 0.4375 0.5390625
vt 0.4296875 0.5390625
vt 0.4765625 0.890625
vt 0.4765625 1
vt 0.46875 1
vt 0.46875 0.890625
vt 0.0546875 0.40625
vt 0.0546875 0.5
vt 0.046875 0.5
vt 0.046875 0.40625
vt 0.0703125 0.5
vt 0.0625 0.5
vt 0.0625 0.40625
vt 0.0703125 0.40625
vt 0.34375 0.78125
vt 0.234375 0.78125
vt 0.234375 0.6875
vt 0.34375 0.6875
vt 0.34375 0.5859375
vt 0.34375 0.6796875
vt 0.234375 0.6796875
vt 0.234375 0.5859375
vt 0.3984375 0.4296875
vt 0.40625 0.4296875
vt 0.40625 0.5390625
vt 0.3984375 0.5390625
vt 0.421875 0.4296875
vt 0.421875 0.5390625
vt 0.4140625 0.5390625
vt 0.4140625 0.4296875
vt 0.0234375 0.40625
vt 0.0234375 0.5
vt 0.015625 0.5
vt 0.015625 0.40625
vt 0.0390625 0.5
vt 0.03125 0.5
vt 0.03125 0.40625
vt 0.0390625 0.40625
vt 0.09375 0.5703125
vt 0.09375 0.5078125
vt 0.109375 0.5078125
vt 0.109375 0.5703125
vt 0.358212265625 0.57909328125
vt 0.35133890625 0.5625
vt 0.3748046875 0.5625
vt 0.234375 0.578125
vt 0.234375 0.515625
vt 0.25 0.515625
vt 0.25 0.578125
vt 0.3748046875 0.58596578125
vt 0.358212265625 0.57909328125
vt 0.3748046875 0.5625
vt 0.1171875 0.5703125
vt 0.1171875 0.5078125
vt 0.1328125 0.5078125
vt 0.1328125 0.5703125
vt 0.39139796875 0.579092421875
vt 0.3748046875 0.58596578125
vt 0.3748046875 0.5625
vt 0.2578125 0.578125
vt 0.2578125 0.515625
vt 0.2734375 0.515625
vt 0.2734375 0.578125
vt 0.39827046875 0.5625
vt 0.39139796875 0.579092421875
vt 0.3748046875 0.5625
vt 0.1640625 0.5703125
vt 0.1640625 0.5078125
vt 0.1796875 0.5078125
vt 0.1796875 0.5703125
vt 0.391397109375 0.54590671875
vt 0.39827046875 0.5625
vt 0.3748046875 0.5625
vt 0.3046875 0.578125
vt 0.3046875 0.515625
vt 0.3203125 0.515625
vt 0.3203125 0.578125
vt 0.3748046875 0.53903421875
vt 0.391397109375 0.54590671875
vt 0.3748046875 0.5625
vt 0.140625 0.5703125
vt 0.140625 0.5078125
vt 0.15625 0.5078125
vt 0.15625 0.5703125
vt 0.35821140625 0.545907578125
vt 0.3748046875 0.53903421875
vt 0.3748046875 0.5625
vt 0.28125 0.578125
vt 0.28125 0.515625
vt 0.296875 0.515625
vt 0.296875 0.578125
vt 0.35133890625 0.5625
vt 0.35821140625 0.545907578125
vt 0.3748046875 0.5625
vt 0.2265625 0.5703125
vt 0.2109375 0.5703125
vt 0.2109375 0.5078125
vt 0.2265625 0.5078125
vt 0.398465859375 0.562528359375
vt 0.3915921875 0.57912078125
vt 0.3749996875 0.56252796875
vt 0.0859375 0.5703125
vt 0.0703125 0.5703125
vt 0.0703125 0.5078125
vt 0.0859375 0.5078125
vt 0.3915921875 0.57912078125
vt 0.374999765625 0.5859940625
vt 0.3749996875 0.56252796875
vt 0.46875 0.546875
vt 0.453125 0.546875
vt 0.453125 0.484375
vt 0.46875 0.484375
vt 0.374999765625 0.5859940625
vt 0.358406953125 0.57912078125
vt 0.374999765625 0.562528125
vt 0.0390625 0.5703125
vt 0.0234375 0.5703125
vt 0.0234375 0.5078125
vt 0.0390625 0.5078125
vt 0.3584065625 0.5791202343749999
vt 0.351533984375 0.562527109375
vt 0.375 0.56252828125
vt 0.34375 0.5390625
vt 0.328125 0.5390625
vt 0.328125 0.4765625
vt 0.34375 0.4765625
vt 0.351533984375 0.562527109375
vt 0.35840765625 0.545934921875
vt 0.375000078125 0.56252828125
vt 0.015625 0.5703125
vt 0 0.5703125
vt 0 0.5078125
vt 0.015625 0.5078125
vt 0.35840765625 0.545934921875
vt 0.375000234375 0.539061953125
vt 0.374999765625 0.562528046875
vt 0.203125 0.5703125
vt 0.1875 0.5703125
vt 0.1875 0.5078125
vt 0.203125 0.5078125
vt 0.375000234375 0.539061953125
vt 0.391592890625 0.54593546875
vt 0.37499984375 0.562527890625
vt 0.0625 0.5703125
vt 0.046875 0.5703125
vt 0.046875 0.5078125
vt 0.0625 0.5078125
vt 0.391592890625 0.54593546875
vt 0.398465859375 0.562528359375
vt 0.37499984375 0.562527890625
vn 2.220446049250313e-16 1.2246467991473532e-16 1
vn -2.220446049250313e-16 -1.2246467991473532e-16 -1
vn 2.5407181807812022e-33 -1 1.2246467991473532e-16
vn -2.5407181807812022e-33 1 -1.2246467991473532e-16
vn 1 -2.719262146893782e-32 -2.220446049250313e-16
vn -1 2.719262146893782e-32 2.220446049250313e-16
vn -1.2176836021103345e-32 -1 5.6182708295323e-17
vn 2.689439022298789e-32 1 1.0099263324089329e-17
vn -2.220446049250313e-16 -1.2246467991473532e-16 -1
vn 2.220446049250313e-16 1.2246467991473532e-16 1
vn 1 -2.719262146893782e-32 -2.220446049250313e-16
vn -1 2.719262146893782e-32 2.220446049250313e-16
vn 1.570092458683775e-16 -0.7071067811865475 0.7071067811865476
vn -1.5700924586837752e-16 0.7071067811865475 -0.7071067811865477
vn -1.5700924586837752e-16 -0.7071067811865477 -0.7071067811865475
vn 1.5700924586837806e-16 0.7071067811865451 0.7071067811865499
vn 1 -2.719262146893782e-32 -2.220446049250313e-16
vn -1 2.719262146893782e-32 2.220446049250313e-16
vn -1.5700924586837747e-16 -0.7071067811865478 -0.7071067811865472
vn 1.570092458683775e-16 0.7071067811865478 0.7071067811865474
vn -1.5700924586837806e-16 0.7071067811865449 -0.7071067811865501
vn 1.5700924586837752e-16 -0.7071067811865475 0.7071067811865477
vn 1 -2.719262146893782e-32 -2.220446049250313e-16
vn -1 2.719262146893782e-32 2.220446049250313e-16
vn 1.5700924586837752e-16 -0.7071067811865475 0.7071067811865477
vn -1.5700924586837752e-16 0.7071067811865475 -0.7071067811865477
vn -1.5700924586837752e-16 -0.7071067811865477 -0.7071067811865475
vn 1.570092458683778e-16 0.7071067811865464 0.7071067811865487
vn 1 -2.719262146893782e-32 -2.220446049250313e-16
vn -1 2.719262146893782e-32 2.220446049250313e-16
vn -1.570092458683775e-16 -0.7071067811865478 -0.7071067811865474
vn 1.5700924586837747e-16 0.7071067811865478 0.7071067811865472
vn -1.5700924586837764e-16 0.7071067811865468 -0.7071067811865482
vn 1.5700924586837794e-16 -0.7071067811865456 0.7071067811865496
vn 1 -2.719262146893782e-32 -2.220446049250313e-16
vn -1 2.719262146893782e-32 2.220446049250313e-16
vn -6.827912694919884e-32 1 -4.1852415314811036e-16
vn 8.471372914130326e-32 -1 4.925390214564542e-16
vn 2.220446049250313e-16 1.2246467991473532e-16 1
vn -2.220446049250313e-16 -1.2246467991473532e-16 -1
vn 1 -2.719262146893782e-32 -2.220446049250313e-16
vn -1 2.719262146893782e-32 2.220446049250313e-16
vn -2.220446049250313e-16 -2.4736477018506546e-16 -1
vn 2.220446049250313e-16 2.4736477018506546e-16 1
vn -2.5407181807812022e-33 1 -1.2246467991473532e-16
vn 2.5407181807812022e-33 -1 1.2246467991473532e-16
vn 1 -2.719262146893782e-32 -2.220446049250313e-16
vn -1 2.719262146893782e-32 2.220446049250313e-16
vn -3.07713698692187e-16 0.38268343236508956 -0.9238795325112868
vn -1 2.719262146893782e-32 2.220446049250313e-16
vn -5.377441189158747e-16 0.9238795325112863 -0.3826834323650907
vn -1 2.719262146893782e-32 2.220446049250313e-16
vn -7.76832784684993e-17 0.9238795325112867 0.3826834323650898
vn -1 2.719262146893782e-32 2.220446049250313e-16
vn 2.227409071413256e-16 0.38268343236508995 0.9238795325112867
vn -1 2.719262146893782e-32 2.220446049250313e-16
vn 3.9268649024304826e-16 -0.3826834323650896 0.9238795325112868
vn -1 -4.18183617136162e-16 2.220449439345934e-16
vn 3.326016531210833e-16 -0.9238795325112867 0.3826834323650902
vn -1 -2.957008515960955e-16 3.4452790806140813e-16
vn 7.768327846849946e-17 -0.923879532511287 -0.3826834323650894
vn -1 -2.9570071117405905e-16 5.177448366671701e-16
vn -2.2274090714132564e-16 -0.3826834323650897 -0.9238795325112867
vn -1 2.719262146893782e-32 2.220446049250313e-16
vn -4.707588848368683e-16 0.38268343236508956 -0.9238795325112868
vn 1 4.181836171361618e-16 -2.220449439345934e-16
vn -1.3326687495778817e-16 0.9238795325112863 -0.3826834323650908
vn 1 2.957008515960956e-16 -3.4452790806140783e-16
vn -8.405583874864198e-17 0.9238795325112867 0.3826834323650898
vn 1 2.957007111740591e-16 -5.177448366671703e-16
vn 2.292895074982546e-16 0.3826834323650899 0.9238795325112867
vn 1 -2.719262146893782e-32 -2.220446049250313e-16
vn 3.983180432799381e-16 -0.3826834323650896 0.9238795325112868
vn 1 -2.719262146893782e-32 -2.220446049250313e-16
vn 3.3851672943722665e-16 -0.9238795325112866 0.3826834323650902
vn 1 -2.719262146893782e-32 -2.220446049250313e-16
vn 7.198236515582042e-17 -0.923879532511287 -0.38268343236508945
vn 1 -2.719262146893782e-32 -2.220446049250313e-16
vn -2.292895074982546e-16 -0.3826834323650898 -0.9238795325112867
vn 1 -2.719262146893782e-32 -2.220446049250313e-16
usemtl m_06dfa132-676a-eece-d248-22869f4cab0e
f 2/1/1 1/2/1 3/3/1 4/4/1
f 7/5/2 5/6/2 6/7/2 8/8/2
f 5/9/3 1/10/3 2/11/3 6/12/3
f 4/13/4 3/14/4 7/15/4 8/16/4
f 3/17/5 1/18/5 5/19/5 7/20/5
f 6/21/6 2/22/6 4/23/6 8/24/6
f 10/25/7 9/26/7 11/27/7 12/28/7
f 15/29/8 13/30/8 14/31/8 16/32/8
f 13/33/9 9/34/9 10/35/9 14/36/9
f 12/37/10 11/38/10 15/39/10 16/40/10
f 11/41/11 9/42/11 13/43/11 15/44/11
f 14/45/12 10/46/12 12/47/12 16/48/12
f 18/49/13 17/50/13 19/51/13 20/52/13
f 23/53/14 21/54/14 22/55/14 24/56/14
f 21/57/15 17/58/15 18/59/15 22/60/15
f 20/61/16 19/62/16 23/63/16 24/64/16
f 19/65/17 17/66/17 21/67/17 23/68/17
f 22/69/18 18/70/18 20/71/18 24/72/18
f 26/73/19 25/74/19 27/75/19 28/76/19
f 31/77/20 29/78/20 30/79/20 32/80/20
f 29/81/21 25/82/21 26/83/21 30/84/21
f 28/85/22 27/86/22 31/87/22 32/88/22
f 27/89/23 25/90/23 29/91/23 31/92/23
f 30/93/24 26/94/24 28/95/24 32/96/24
f 34/97/25 33/98/25 35/99/25 36/100/25
f 39/101/26 37/102/26 38/103/26 40/104/26
f 37/105/27 33/106/27 34/107/27 38/108/27
f 36/109/28 35/110/28 39/111/28 40/112/28
f 35/113/29 33/114/29 37/115/29 39/116/29
f 38/117/30 34/118/30 36/119/30 40/120/30
f 42/121/31 41/122/31 43/123/31 44/124/31
f 47/125/32 45/126/32 46/127/32 48/128/32
f 45/129/33 41/130/33 42/131/33 46/132/33
f 44/133/34 43/134/34 47/135/34 48/136/34
f 43/137/35 41/138/35 45/139/35 47/140/35
f 46/141/36 42/142/36 44/143/36 48/144/36
f 50/145/37 49/146/37 51/147/37 52/148/37
f 55/149/38 53/150/38 54/151/38 56/152/38
f 53/153/39 49/154/39 50/155/39 54/156/39
f 52/157/40 51/158/40 55/159/40 56/160/40
f 51/161/41 49/162/41 53/163/41 55/164/41
f 54/165/42 50/166/42 52/167/42 56/168/42
f 58/169/43 57/170/43 59/171/43 60/172/43
f 63/173/44 61/174/44 62/175/44 64/176/44
f 61/177/45 57/178/45 58/179/45 62/180/45
f 60/181/46 59/182/46 63/183/46 64/184/46
f 59/185/47 57/186/47 61/187/47 63/188/47
f 62/189/48 58/190/48 60/191/48 64/192/48
f 69/193/49 68/194/49 66/195/49 67/196/49
f 69/197/50 67/198/50 65/199/50
f 71/200/51 70/201/51 68/202/51 69/203/51
f 71/204/52 69/205/52 65/206/52
f 73/207/53 72/208/53 70/209/53 71/210/53
f 73/211/54 71/212/54 65/213/54
f 75/214/55 74/215/55 72/216/55 73/217/55
f 75/218/56 73/219/56 65/220/56
f 77/221/57 76/222/57 74/223/57 75/224/57
f 77/225/58 75/226/58 65/227/58
f 79/228/59 78/229/59 76/230/59 77/231/59
f 79/232/60 77/233/60 65/234/60
f 81/235/61 80/236/61 78/237/61 79/238/61
f 81/239/62 79/240/62 65/241/62
f 67/242/63 66/243/63 80/244/63 81/245/63
f 67/246/64 81/247/64 65/248/64
f 83/249/65 85/250/65 86/251/65 84/252/65
f 84/253/66 86/254/66 82/255/66
f 85/256/67 87/257/67 88/258/67 86/259/67
f 86/260/68 88/261/68 82/262/68
f 87/263/69 89/264/69 90/265/69 88/266/69
f 88/267/70 90/268/70 82/269/70
f 89/270/71 91/271/71 92/272/71 90/273/71
f 90/274/72 92/275/72 82/276/72
f 91/277/73 93/278/73 94/279/73 92/280/73
f 92/281/74 94/282/74 82/283/74
f 93/284/75 95/285/75 96/286/75 94/287/75
f 94/288/76 96/289/76 82/290/76
f 95/291/77 97/292/77 98/293/77 96/294/77
f 96/295/78 98/296/78 82/297/78
f 97/298/79 83/299/79 84/300/79 98/301/79
f 98/302/80 84/303/80 82/304/80