# Made in Blockbench 5.1.4
mtllib stator_coil_copper.mtl

o Цилиндр.001
v 0.2303456249999999 0.41317 0.888884375
v 0.7696537500000001 0.41317 0.11111500000000007
v 0.7696537499999999 0.41317 0.8888843750000001
v 0.2303456249999999 0.455918125 0.97222625
v 0.7696537499999999 0.413144375 0.9722493750000001
v 0.7696537499999999 0.455918125 0.9722262500000001
v 0.7696537500000001 0.413144375 0.02775125000000006
v 0.2303456250000001 0.455918125 0.027774374999999962
v 0.7696537500000001 0.455918125 0.027774375000000073
v 0.2303456250000001 0.413144375 0.02774999999999994
v 0.2303456250000001 0.41317 0.11111499999999996
v 0.660565 0.455918125 0.8888843750000001
v 0.76965375 0.455918125 0.7912481250000001
v 0.3394356249999999 0.455918125 0.888884375
v 0.3394356250000001 0.455918125 0.11111499999999996
v 0.23034562500000005 0.455918125 0.20875249999999995
v 0.6605650000000001 0.455918125 0.11111500000000007
v 0.23034562499999994 0.652965 0.791248125
v 0.33943499999999993 0.652965 0.888884375
v 0.76965375 0.652965 0.7912481250000001
v 0.23034562500000005 0.652965 0.20875249999999995
v 0.33943500000000004 0.652965 0.11111499999999996
v 0.76965375 0.652965 0.20875250000000006
v 0.6605650000000001 0.652965 0.11111500000000007
v 0.660565 0.652965 0.8888843750000001
v 0.76965375 0.455918125 0.20875250000000006
v 0.23034562499999994 0.455918125 0.791248125
v 0.2303456249999999 0.413144375 0.972249375
vt 0.34375 0.765625
vt 0.578125 0.453125
vt 0.578125 0.765625
vt 0.2796875 0.53125
vt 0.30104171875 0.74461203125
vt 0.2796875 0.74461203125
vt 0.578125 0.796875
vt 0.34375 0.765625
vt 0.578125 0.765625
vt 0.14479171875 0.24461203124999997
vt 0.1234375 0.47737062500000005
vt 0.1234375 0.24461203124999997
vt 0.34375 0.421875
vt 0.578125 0.453125
vt 0.34375 0.453125
vt 0.1875 0.59375
vt 0.14479171875 0.5743534375
vt 0.16614578125 0.5355603125
vt 0.01666671875 0.41918109375
vt 0.059375 0.38038796875
vt 0.08072921875 0.39978453125
vt 0.01666671875 0.41918109375
vt 0.059375 0.43857765625
vt 0.01666671875 0.47737062500000005
vt 0.1875 0.47737062500000005
vt 0.14479171875 0.51616375
vt 0.10208328125 0.47737062500000005
vt 0.1875 1
vt 0.265625 0.859375
vt 0.265625 1
vt 0.265625 1
vt 0.1875 0.859375
vt 0.265625 0.859375
vt 0.1875 0.859375
vt 0.265625 1
vt 0.1875 1
vt 0.265625 0.859375
vt 0.1875 1
vt 0.1875 0.859375
vt 0.1875 1
vt 0 0.859375
vt 0.1875 0.859375
vt 0.265625 0.859375
vt 0.515625 1
vt 0.265625 1
vt 0.265625 0.859375
vt 0.515625 1
vt 0.265625 1
vt 0 0.859375
vt 0.1875 1
vt 0 1
vt 0.07864578125 0.66540953125
vt 0.12135421875 0.8399784375
vt 0.07864578125 0.8011853125
vt 0.215625 0.8028017187500001
vt 0.19427078125 0.53125
vt 0.215625 0.570043125
vt 0.01458328125 0.7235990625
vt 0.0359375 0.7623921875
vt 0.01458328125 0.7623921875
vt 0.215625 0.84159484375
vt 0.23697921875 0.570043125
vt 0.23697921875 0.8028017187500001
vt 0.0359375 0.7235990625
vt 0.0359375 0.7623921875
vt 0.01458328125 0.7623921875
vt 0.0359375 0.7623921875
vt 0.01458328125 0.7235990625
vt 0.0359375 0.7235990625
vt 0.05729171875 0.8399784375
vt 0.07864578125 0.66540953125
vt 0.07864578125 0.8011853125
vt 0.01458328125 0.7623921875
vt 0.01458328125 0.7235990625
vt 0.0359375 0.7235990625
vt 0.53125 0.3125
vt 0.328125 0.265625
vt 0.390625 0
vt 0.34375 0.765625
vt 0.34375 0.453125
vt 0.578125 0.453125
vt 0.2796875 0.53125
vt 0.30104171875 0.53125
vt 0.30104171875 0.74461203125
vt 0.578125 0.796875
vt 0.34375 0.796875
vt 0.34375 0.765625
vt 0.14479171875 0.24461203124999997
vt 0.14479171875 0.47737062500000005
vt 0.1234375 0.47737062500000005
vt 0.34375 0.421875
vt 0.578125 0.421875
vt 0.578125 0.453125
vt 0.1875 0.59375
vt 0.10208328125 0.59375
vt 0.14479171875 0.5743534375
vt 0.01666671875 0.41918109375
vt 0.01666671875 0.34159484375000004
vt 0.059375 0.38038796875
vt 0.01666671875 0.41918109375
vt 0.08072921875 0.41918109375
vt 0.059375 0.43857765625
vt 0.1875 0.47737062500000005
vt 0.16614578125 0.5355603125
vt 0.14479171875 0.51616375
vt 0.1875 1
vt 0.1875 0.859375
vt 0.265625 0.859375
vt 0.265625 1
vt 0.1875 1
vt 0.1875 0.859375
vt 0.1875 0.859375
vt 0.265625 0.859375
vt 0.265625 1
vt 0.265625 0.859375
vt 0.265625 1
vt 0.1875 1
vt 0.1875 1
vt 0 1
vt 0 0.859375
vt 0.265625 0.859375
vt 0.515625 0.859375
vt 0.515625 1
vt 0.265625 0.859375
vt 0.515625 0.859375
vt 0.515625 1
vt 0 0.859375
vt 0.1875 0.859375
vt 0.1875 1
vt 0.07864578125 0.66540953125
vt 0.12135421875 0.60721984375
vt 0.12135421875 0.8399784375
vt 0.215625 0.8028017187500001
vt 0.19427078125 0.84159484375
vt 0.19427078125 0.53125
vt 0.215625 0.84159484375
vt 0.215625 0.53125
vt 0.23697921875 0.570043125
vt 0.05729171875 0.8399784375
vt 0.05729171875 0.60721984375
vt 0.07864578125 0.66540953125
vt 0.390625 0
vt 0.53125 0
vt 0.578125 0.03125
vt 0.578125 0.03125
vt 0.578125 0.265625
vt 0.53125 0.3125
vt 0.53125 0.3125
vt 0.390625 0.3125
vt 0.328125 0.265625
vt 0.328125 0.265625
vt 0.328125 0.03125
vt 0.390625 0
vt 0.390625 0
vt 0.578125 0.03125
vt 0.53125 0.3125
vn 0 -1 0
vn -2.2204457247471284e-16 0.000540635240549408 0.9999998538567578
vn 6.825277673365441e-20 -0.9999999527577894 -0.00030738317986468765
vn 2.2204457247471284e-16 0.000540635240549408 -0.9999998538567578
vn -6.825277673365441e-20 -0.9999999527577894 0.00030738317986468765
vn 0.3378585674703317 0.8621797751861435 0.37748857419379767
vn -0.32923143352176587 0.8401738575174804 -0.430946113018089
vn -0.3378557543964274 0.8621824757718911 -0.3774849237957371
vn 0.3292338800419219 0.8401704737090392 0.4309508409784931
vn -0.6669085342644787 -0.000002115323239255763 0.7451395888830025
vn 0.6669106557508594 0 0.7451376901257638
vn -0.6669132749021527 -0.000002115338275811663 -0.7451353459303961
vn 0.6669153963794539 0 -0.7451334471569748
vn -2.220446049250313e-16 0 1
vn 1 0 2.220446049250313e-16
vn -1 0 -2.220446049250313e-16
vn 2.220446049250313e-16 0 -1
vn 0 1 0
vn 1 0 2.220446049250313e-16
vn 1 0 2.220446049250313e-16
vn -1 0 -2.220446049250313e-16
vn -1 0 -2.220446049250313e-16
vn -1 0 -2.220446049250313e-16
vn 0 1 0
vn 1 0 2.220446049250313e-16
vn 0 1 0
vn 0 -1 0
vn -2.2204457247471284e-16 0.000540635240549408 0.9999998538567578
vn 6.825277673365441e-20 -0.9999999527577894 -0.00030738317986468765
vn 0.0000023177841000683755 0.0005698587578175517 -0.9999998376277989
vn -7.124586454197749e-10 -0.9999999527563725 0.0003073877889296413
vn 0.32923479711784 0.8401728139909939 -0.4309455777673439
vn -0.3378551380412387 0.8621809028798035 0.37748906793244014
vn -0.3292305164529394 0.8401715172268056 0.4309513762327933
vn 0.33785918383016494 0.8621813480720592 -0.37748443006071336
vn -0.6669064127891732 0 0.7451414876254557
vn 0.6669106557508594 0 0.7451376901257638
vn -0.666911153435927 0 -0.7451372446890314
vn 0.6669153963794539 0 -0.7451334471569748
vn -2.220446049250313e-16 0 1
vn 1 0 2.220446049250313e-16
vn -1 0 -2.220446049250313e-16
vn 2.220446049250313e-16 0 -1
vn 0 1 0
vn 1 0 2.220446049250313e-16
vn -1 0 -2.220446049250313e-16
vn 0 1 0
vn 0 1 0
vn 0 1 0
vn 0 1 0
vn 0 1 0
vn 0 1 0
usemtl m_a198eb51-7948-7bbb-1762-47c211f32aa4
f 1/1/1 2/2/1 3/3/1
f 4/4/2 5/5/2 6/6/2
f 5/7/3 1/8/3 3/9/3
f 7/10/4 8/11/4 9/12/4
f 10/13/5 2/14/5 11/15/5
f 12/16/6 3/17/6 13/18/6
f 14/19/7 1/20/7 4/21/7
f 15/22/8 11/23/8 16/24/8
f 17/25/9 2/26/9 9/27/9
f 18/28/10 14/29/10 19/30/10
f 20/31/11 12/32/11 13/33/11
f 15/34/12 21/35/12 22/36/12
f 23/37/13 17/38/13 24/39/13
f 14/40/14 25/41/14 19/42/14
f 13/43/15 23/44/15 20/45/15
f 16/46/16 18/47/16 21/48/16
f 17/49/17 22/50/17 24/51/17
f 14/52/18 6/53/18 12/54/18
f 13/55/19 2/56/19 26/57/19
f 3/58/20 6/59/20 5/60/20
f 11/61/21 27/62/21 16/63/21
f 1/64/22 28/65/22 4/66/22
f 11/67/23 8/68/23 10/69/23
f 9/70/24 15/71/24 17/72/24
f 2/73/25 7/74/25 9/75/25
f 24/76/26 21/77/26 19/78/26
f 1/79/27 11/80/27 2/81/27
f 4/82/28 28/83/28 5/84/28
f 5/85/29 28/86/29 1/87/29
f 7/88/30 10/89/30 8/90/30
f 10/91/31 7/92/31 2/93/31
f 12/94/32 6/95/32 3/96/32
f 14/97/33 27/98/33 1/99/33
f 15/100/34 8/101/34 11/102/34
f 17/103/35 26/104/35 2/105/35
f 18/106/36 27/107/36 14/108/36
f 20/109/37 25/110/37 12/111/37
f 15/112/38 16/113/38 21/114/38
f 23/115/39 26/116/39 17/117/39
f 14/118/40 12/119/40 25/120/40
f 13/121/41 26/122/41 23/123/41
f 16/124/42 27/125/42 18/126/42
f 17/127/43 15/128/43 22/129/43
f 14/130/44 4/131/44 6/132/44
f 13/133/45 3/134/45 2/135/45
f 11/136/46 1/137/46 27/138/46
f 9/139/47 8/140/47 15/141/47
f 19/142/48 25/143/48 20/144/48
f 20/145/49 23/146/49 24/147/49
f 24/148/50 22/149/50 21/150/50
f 21/151/51 18/152/51 19/153/51
f 19/154/52 20/155/52 24/156/52