# Made in Blockbench 5.0.7
mtllib steel_props.mtl

o 1
v -0.402565 0.888606875 -0.28125
v -0.3354025 0.994030625 -0.28125
v -0.3354025 0.994030625 -0.40625
v -0.402565 0.888606875 -0.40625
v 0.402565 0.523893125 -0.40625
v 0.402565 0.523893125 -0.28125
v 0.3354025 0.418469375 -0.28125
v 0.3354025 0.418469375 -0.40625
vt 0.734375 0.421875
vt 0.734375 0.453125
vt 0.703125 0.453125
vt 0.703125 0.421875
vt 0.734375 0.5
vt 0.703125 0.5
vt 0.703125 0.46875
vt 0.734375 0.46875
vt 0.53125 0.78125
vt 0.53125 1
vt 0.5 1
vt 0.5 0.78125
vt 0.53125 0.5
vt 0.53125 0.71875
vt 0.5 0.71875
vt 0.5 0.5
vt 0.71875 0.734375
vt 0.71875 0.765625
vt 0.5 0.765625
vt 0.5 0.734375
vt 0.53125 0.484375
vt 0.5 0.484375
vt 0.5 0.265625
vt 0.53125 0.265625
vn -0.8433908509396282 0.5373005421096558 0
vn 0.8433908509396283 -0.5373005421096556 0
vn 0 0 1
vn -0.5372998947462506 -0.8433912633562599 0
vn 0 0 -1
vn 0.5372998947462505 0.8433912633562599 0
usemtl m_ec99f8e1-d54e-0ce4-619b-e339ccee326b
f 1/1/1 2/2/1 3/3/1 4/4/1
f 5/5/2 6/6/2 7/7/2 8/8/2
f 6/9/3 2/10/3 1/11/3 7/12/3
f 7/13/4 1/14/4 4/15/4 8/16/4
f 4/17/5 3/18/5 5/19/5 8/20/5
f 3/21/6 2/22/6 6/23/6 5/24/6
o 2
v 0.3354025 0.575280625 -0.2796875
v 0.402565 0.469856875 -0.2796875
v 0.402565 0.469856875 -0.4078125
v 0.3354025 0.575280625 -0.4078125
v -0.3354025 -0.000280625 -0.4078125
v -0.3354025 -0.000280625 -0.2796875
v -0.402565 0.105143125 -0.2796875
v -0.402565 0.105143125 -0.4078125
vt 0.703125 0.359375
vt 0.703125 0.328125
vt 0.734375 0.328125
vt 0.734375 0.359375
vt 0.703125 0.375
vt 0.734375 0.375
vt 0.734375 0.40625
vt 0.703125 0.40625
vt 0 0.4375
vt 0.21875 0.4375
vt 0.21875 0.46875
vt 0 0.46875
vt 0.3125 0.25
vt 0.3125 0.46875
vt 0.28125 0.46875
vt 0.28125 0.25
vt 0.265625 0.46875
vt 0.234375 0.46875
vt 0.234375 0.25
vt 0.265625 0.25
vt 0.359375 0.46875
vt 0.328125 0.46875
vt 0.328125 0.25
vt 0.359375 0.25
vn 0.8433908509396283 0.5373005421096556 0
vn -0.8433908509396283 -0.5373005421096555 0
vn 0 0 1
vn -0.5372998947462506 0.84339126335626 0
vn 0 0 -1
vn 0.5372998947462506 -0.84339126335626 0
usemtl m_ec99f8e1-d54e-0ce4-619b-e339ccee326b
f 9/25/7 10/26/7 11/27/7 12/28/7
f 13/29/8 14/30/8 15/31/8 16/32/8
f 14/33/9 10/34/9 9/35/9 15/36/9
f 15/37/10 9/38/10 12/39/10 16/40/10
f 12/41/11 11/42/11 13/43/11 16/44/11
f 11/45/12 10/46/12 14/47/12 13/48/12
o 3
v -0.4078125 0.9999375 0.34375
v -0.2796875 0.9999375 0.34375
v -0.2796875 0.9999375 -0.28125
v -0.4078125 0.9999375 -0.28125
v -0.2796875 0.9374375 -0.28125
v -0.2796875 0.9374375 0.34375
v -0.4078125 0.9374375 0.34375
v -0.4078125 0.9374375 -0.28125
vt 0.125 0.421875
vt 0.09375 0.421875
vt 0.09375 0.265625
vt 0.125 0.265625
vt 0.171875 0.265625
vt 0.171875 0.421875
vt 0.140625 0.421875
vt 0.140625 0.265625
vt 0.125 0.234375
vt 0.125 0.25
vt 0.09375 0.25
vt 0.09375 0.234375
vt 0.171875 0.25
vt 0.140625 0.25
vt 0.140625 0.234375
vt 0.171875 0.234375
vt 0.703125 0.8125
vt 0.546875 0.8125
vt 0.546875 0.796875
vt 0.703125 0.796875
vt 0.796875 0.703125
vt 0.796875 0.71875
vt 0.640625 0.71875
vt 0.640625 0.703125
vn 0 1 0
vn 0 -1 0
vn 0 0 1
vn 0 0 -1
vn 1 0 0
vn -1 0 0
usemtl m_ec99f8e1-d54e-0ce4-619b-e339ccee326b
f 17/49/13 18/50/13 19/51/13 20/52/13
f 21/53/14 22/54/14 23/55/14 24/56/14
f 22/57/15 18/58/15 17/59/15 23/60/15
f 20/61/16 19/62/16 21/63/16 24/64/16
f 19/65/17 18/66/17 22/67/17 21/68/17
f 23/69/18 17/70/18 20/71/18 24/72/18
o 4
v 0.2796875 0.5734375 0.28125
v 0.4078125 0.5734375 0.28125
v 0.4078125 0.5734375 -0.34375
v 0.2796875 0.5734375 -0.34375
v 0.4078125 0.4484375 -0.34375
v 0.4078125 0.4484375 0.28125
v 0.2796875 0.4484375 0.28125
v 0.2796875 0.4484375 -0.34375
vt 0.21875 0.421875
vt 0.1875 0.421875
vt 0.1875 0.265625
vt 0.21875 0.265625
vt 0.625 0.5625
vt 0.625 0.71875
vt 0.59375 0.71875
vt 0.59375 0.5625
vt 0.734375 0.28125
vt 0.734375 0.3125
vt 0.703125 0.3125
vt 0.703125 0.28125
vt 0.75 0.90625
vt 0.71875 0.90625
vt 0.71875 0.875
vt 0.75 0.875
vt 0.703125 0.90625
vt 0.546875 0.90625
vt 0.546875 0.875
vt 0.703125 0.875
vt 0.703125 0.828125
vt 0.703125 0.859375
vt 0.546875 0.859375
vt 0.546875 0.828125
vn 0 1 0
vn 0 -1 0
vn 0 0 1
vn 0 0 -1
vn 1 0 0
vn -1 0 0
usemtl m_ec99f8e1-d54e-0ce4-619b-e339ccee326b
f 25/73/19 26/74/19 27/75/19 28/76/19
f 29/77/20 30/78/20 31/79/20 32/80/20
f 30/81/21 26/82/21 25/83/21 31/84/21
f 28/85/22 27/86/22 29/87/22 32/88/22
f 27/89/23 26/90/23 30/91/23 29/92/23
f 31/93/24 25/94/24 28/95/24 32/96/24
o 5
v -0.4078125 0.0625625 0.34375
v -0.2796875 0.0625625 0.34375
v -0.2796875 0.0625625 -0.28125
v -0.4078125 0.0625625 -0.28125
v -0.2796875 0.0000625 -0.28125
v -0.2796875 0.0000625 0.34375
v -0.4078125 0.0000625 0.34375
v -0.4078125 0.0000625 -0.28125
vt 0.625 0.546875
vt 0.59375 0.546875
vt 0.59375 0.390625
vt 0.625 0.390625
vt 0.625 0.21875
vt 0.625 0.375
vt 0.59375 0.375
vt 0.59375 0.21875
vt 0.21875 0.234375
vt 0.21875 0.25
vt 0.1875 0.25
vt 0.1875 0.234375
vt 0.5 0.25
vt 0.46875 0.25
vt 0.46875 0.234375
vt 0.5 0.234375
vt 0.796875 0.6875
vt 0.640625 0.6875
vt 0.640625 0.671875
vt 0.796875 0.671875
vt 0.796875 0.640625
vt 0.796875 0.65625
vt 0.640625 0.65625
vt 0.640625 0.640625
vn 0 1 0
vn 0 -1 0
vn 0 0 1
vn 0 0 -1
vn 1 0 0
vn -1 0 0
usemtl m_ec99f8e1-d54e-0ce4-619b-e339ccee326b
f 33/97/25 34/98/25 35/99/25 36/100/25
f 37/101/26 38/102/26 39/103/26 40/104/26
f 38/105/27 34/106/27 33/107/27 39/108/27
f 36/109/28 35/110/28 37/111/28 40/112/28
f 35/113/29 34/114/29 38/115/29 37/116/29
f 39/117/30 33/118/30 36/119/30 40/120/30
o 6
v -0.402565 0.888606875 0.40625
v -0.3354025 0.994030625 0.40625
v -0.3354025 0.994030625 0.28125
v -0.402565 0.888606875 0.28125
v 0.402565 0.523893125 0.28125
v 0.402565 0.523893125 0.40625
v 0.3354025 0.418469375 0.40625
v 0.3354025 0.418469375 0.28125
vt 0.75 0.78125
vt 0.75 0.8125
vt 0.71875 0.8125
vt 0.71875 0.78125
vt 0.75 0.859375
vt 0.71875 0.859375
vt 0.71875 0.828125
vt 0.75 0.828125
vt 0.40625 0.25
vt 0.40625 0.46875
vt 0.375 0.46875
vt 0.375 0.25
vt 0.453125 0.25
vt 0.453125 0.46875
vt 0.421875 0.46875
vt 0.421875 0.25
vt 0.765625 0.96875
vt 0.765625 1
vt 0.546875 1
vt 0.546875 0.96875
vt 0.578125 0.71875
vt 0.546875 0.71875
vt 0.546875 0.5
vt 0.578125 0.5
vn -0.8433908509396282 0.5373005421096558 0
vn 0.8433908509396283 -0.5373005421096556 0
vn 0 0 1
vn -0.5372998947462506 -0.8433912633562599 0
vn 0 0 -1
vn 0.5372998947462505 0.8433912633562599 0
usemtl m_ec99f8e1-d54e-0ce4-619b-e339ccee326b
f 41/121/31 42/122/31 43/123/31 44/124/31
f 45/125/32 46/126/32 47/127/32 48/128/32
f 46/129/33 42/130/33 41/131/33 47/132/33
f 47/133/34 41/134/34 44/135/34 48/136/34
f 44/137/35 43/138/35 45/139/35 48/140/35
f 43/141/36 42/142/36 46/143/36 45/144/36
o 7
v 0.3354025 0.575280625 0.4078125
v 0.402565 0.469856875 0.4078125
v 0.402565 0.469856875 0.2796875
v 0.3354025 0.575280625 0.2796875
v -0.3354025 -0.000280625 0.2796875
v -0.3354025 -0.000280625 0.4078125
v -0.402565 0.105143125 0.4078125
v -0.402565 0.105143125 0.2796875
vt 0.703125 0.265625
vt 0.703125 0.234375
vt 0.734375 0.234375
vt 0.734375 0.265625
vt 0.734375 0.734375
vt 0.765625 0.734375
vt 0.765625 0.765625
vt 0.734375 0.765625
vt 0.546875 0.921875
vt 0.765625 0.921875
vt 0.765625 0.953125
vt 0.546875 0.953125
vt 0.03125 0.203125
vt 0.03125 0.421875
vt 0 0.421875
vt 0 0.203125
vt 0.578125 0.484375
vt 0.546875 0.484375
vt 0.546875 0.265625
vt 0.578125 0.265625
vt 0.078125 0.421875
vt 0.046875 0.421875
vt 0.046875 0.203125
vt 0.078125 0.203125
vn 0.8433908509396283 0.5373005421096556 0
vn -0.8433908509396283 -0.5373005421096555 0
vn 0 0 1
vn -0.5372998947462506 0.84339126335626 0
vn 0 0 -1
vn 0.5372998947462506 -0.84339126335626 0
usemtl m_ec99f8e1-d54e-0ce4-619b-e339ccee326b
f 49/145/37 50/146/37 51/147/37 52/148/37
f 53/149/38 54/150/38 55/151/38 56/152/38
f 54/153/39 50/154/39 49/155/39 55/156/39
f 55/157/40 49/158/40 52/159/40 56/160/40
f 52/161/41 51/162/41 53/163/41 56/164/41
f 51/165/42 50/166/42 54/167/42 53/168/42
o 8
v -0.265625 1 -0.421875
v -0.265625 1 -0.265625
v -0.265625 0 -0.265625
v -0.265625 0 -0.421875
v -0.421875 0 -0.265625
v -0.421875 1 -0.265625
v -0.421875 1 -0.421875
v -0.421875 0 -0.421875
vt 0.046875 1
vt 0 1
vt 0 0.75
vt 0.046875 0.75
vt 0.109375 0.75
vt 0.109375 1
vt 0.0625 1
vt 0.0625 0.75
vt 0.640625 0.578125
vt 0.6875 0.578125
vt 0.6875 0.625
vt 0.640625 0.625
vt 0.6875 0.515625
vt 0.6875 0.5625
vt 0.640625 0.5625
vt 0.640625 0.515625
vt 0.171875 0.75
vt 0.171875 1
vt 0.125 1
vt 0.125 0.75
vt 0.234375 1
vt 0.1875 1
vt 0.1875 0.75
vt 0.234375 0.75
vn 1 0 0
vn -1 0 0
vn 0 1 0
vn 0 -1 0
vn 0 0 1
vn 0 0 -1
usemtl m_ec99f8e1-d54e-0ce4-619b-e339ccee326b
f 57/169/43 58/170/43 59/171/43 60/172/43
f 61/173/44 62/174/44 63/175/44 64/176/44
f 62/177/45 58/178/45 57/179/45 63/180/45
f 60/181/46 59/182/46 61/183/46 64/184/46
f 59/185/47 58/186/47 62/187/47 61/188/47
f 63/189/48 57/190/48 60/191/48 64/192/48
o 9
v 0.421875 1 -0.421875
v 0.421875 1 -0.265625
v 0.421875 0 -0.265625
v 0.421875 0 -0.421875
v 0.265625 0 -0.265625
v 0.265625 1 -0.265625
v 0.265625 1 -0.421875
v 0.265625 0 -0.421875
vt 0.296875 1
vt 0.25 1
vt 0.25 0.75
vt 0.296875 0.75
vt 0.046875 0.484375
vt 0.046875 0.734375
vt 0 0.734375
vt 0 0.484375
vt 0.640625 0.453125
vt 0.6875 0.453125
vt 0.6875 0.5
vt 0.640625 0.5
vt 0.6875 0.390625
vt 0.6875 0.4375
vt 0.640625 0.4375
vt 0.640625 0.390625
vt 0.109375 0.484375
vt 0.109375 0.734375
vt 0.0625 0.734375
vt 0.0625 0.484375
vt 0.171875 0.734375
vt 0.125 0.734375
vt 0.125 0.484375
vt 0.171875 0.484375
vn 1 0 0
vn -1 0 0
vn 0 1 0
vn 0 -1 0
vn 0 0 1
vn 0 0 -1
usemtl m_ec99f8e1-d54e-0ce4-619b-e339ccee326b
f 65/193/49 66/194/49 67/195/49 68/196/49
f 69/197/50 70/198/50 71/199/50 72/200/50
f 70/201/51 66/202/51 65/203/51 71/204/51
f 68/205/52 67/206/52 69/207/52 72/208/52
f 67/209/53 66/210/53 70/211/53 69/212/53
f 71/213/54 65/214/54 68/215/54 72/216/54
o 10
v 0.421875 1 0.265625
v 0.421875 1 0.421875
v 0.421875 0 0.421875
v 0.421875 0 0.265625
v 0.265625 0 0.421875
v 0.265625 1 0.421875
v 0.265625 1 0.265625
v 0.265625 0 0.265625
vt 0.234375 0.734375
vt 0.1875 0.734375
vt 0.1875 0.484375
vt 0.234375 0.484375
vt 0.296875 0.484375
vt 0.296875 0.734375
vt 0.25 0.734375
vt 0.25 0.484375
vt 0.640625 0.328125
vt 0.6875 0.328125
vt 0.6875 0.375
vt 0.640625 0.375
vt 0.6875 0.265625
vt 0.6875 0.3125
vt 0.640625 0.3125
vt 0.640625 0.265625
vt 0.359375 0.75
vt 0.359375 1
vt 0.3125 1
vt 0.3125 0.75
vt 0.359375 0.734375
vt 0.3125 0.734375
vt 0.3125 0.484375
vt 0.359375 0.484375
vn 1 0 0
vn -1 0 0
vn 0 1 0
vn 0 -1 0
vn 0 0 1
vn 0 0 -1
usemtl m_ec99f8e1-d54e-0ce4-619b-e339ccee326b
f 73/217/55 74/218/55 75/219/55 76/220/55
f 77/221/56 78/222/56 79/223/56 80/224/56
f 78/225/57 74/226/57 73/227/57 79/228/57
f 76/229/58 75/230/58 77/231/58 80/232/58
f 75/233/59 74/234/59 78/235/59 77/236/59
f 79/237/60 73/238/60 76/239/60 80/240/60
o 11
v -0.265625 1 0.265625
v -0.265625 1 0.421875
v -0.265625 0 0.421875
v -0.265625 0 0.265625
v -0.421875 0 0.421875
v -0.421875 1 0.421875
v -0.421875 1 0.265625
v -0.421875 0 0.265625
vt 0.421875 1
vt 0.375 1
vt 0.375 0.75
vt 0.421875 0.75
vt 0.421875 0.484375
vt 0.421875 0.734375
vt 0.375 0.734375
vt 0.375 0.484375
vt 0.703125 0.578125
vt 0.75 0.578125
vt 0.75 0.625
vt 0.703125 0.625
vt 0.75 0.515625
vt 0.75 0.5625
vt 0.703125 0.5625
vt 0.703125 0.515625
vt 0.484375 0.75
vt 0.484375 1
vt 0.4375 1
vt 0.4375 0.75
vt 0.484375 0.734375
vt 0.4375 0.734375
vt 0.4375 0.484375
vt 0.484375 0.484375
vn 1 0 0
vn -1 0 0
vn 0 1 0
vn 0 -1 0
vn 0 0 1
vn 0 0 -1
usemtl m_ec99f8e1-d54e-0ce4-619b-e339ccee326b
f 81/241/61 82/242/61 83/243/61 84/244/61
f 85/245/62 86/246/62 87/247/62 88/248/62
f 86/249/63 82/250/63 81/251/63 87/252/63
f 84/253/64 83/254/64 85/255/64 88/256/64
f 83/257/65 82/258/65 86/259/65 85/260/65
f 87/261/66 81/262/66 84/263/66 88/264/66